<?xml version="1.0" encoding="UTF-8"?><svg id="Layer_1" xmlns="http://www.w3.org/2000/svg" width="1509" height="645.14" viewBox="0 0 1509 645.14"><defs><style>.cls-1{fill:#2c91e5;}</style></defs><path class="cls-1" d="m1510.09,61.67c-89.71,7.16-175.65,43.03-261.42,67.93-36.21,10.51-73.16,20.91-110.83,24.47-21.85,2.06-48.15,2.55-65.24-13.77-19.34-18.47-17.97-48.28-31.73-69.95-21.22-33.44-67.67-25.86-100.73-19.56-73.07,13.92-143.76,40.52-214.44,63.06-57.2,18.24-121.38,43.56-182.43,41.48-32.97-1.12-54.2-15.91-71.19-43.2-16.26-26.11-30.74-48.06-63.41-53.48-63.59-10.55-135.73,26.07-192.96,49.1C146.95,135.4,75.1,171.33-.12,174.79c0-.52,0-.79,0-1.32,75.21-3.79,146.98-39.64,215.8-67.28,57.29-23.01,129.39-59.44,193.02-48.87,32.68,5.43,47.12,27.32,63.34,53.47,16.95,27.33,38.21,42.07,71.18,43.2,61.01,2.09,125.21-23.28,182.39-41.48,70.78-22.53,141.57-49.11,214.71-63.06,32.97-6.29,79.59-13.91,100.7,19.56,13.68,21.68,12.09,51.5,31.4,69.96,17.08,16.34,43.52,15.83,65.36,13.78,37.66-3.54,74.61-13.95,110.81-24.46,85.79-24.91,171.78-60.84,261.52-67.96,0,.54-.01.81-.02,1.35Z"/><path class="cls-1" d="m1509.87,76.78c-88.8,7.24-173.64,42.36-258.56,67.01-36.04,10.46-72.77,20.67-110.24,24.32-22.35,2.18-47.47,2.3-65.26-13.6-20.43-18.27-22.4-48.2-37.79-69.8-23.26-32.66-67.27-26.22-101.74-19.67-71.3,13.56-140.06,40.3-208.8,62.91-56.65,18.64-119.84,43.52-180.48,41.57-33.24-1.07-54.64-16.43-72.49-43.35-17.11-25.79-32.41-48.47-65.22-53.94-63.32-10.55-135.83,27.64-192.62,50.74C148.33,150.76,75.37,187.38.08,187.11c0-.48,0-.72,0-1.22,75.29-.18,148.11-36.74,216.49-64.54,56.8-23.09,129.28-61.14,192.6-50.59,32.77,5.46,47.94,28.06,64.92,53.88,17.73,26.96,39.08,42.24,72.27,43.31,60.76,1.96,124.13-22.97,180.92-41.57,69.02-22.61,138.07-49.33,209.64-62.92,34.28-6.51,78.58-13.12,101.54,19.67,15.13,21.61,16.65,51.52,36.91,69.82,17.67,15.96,42.91,15.78,65.18,13.61,37.51-3.65,74.29-13.89,110.37-24.37,85.06-24.69,170.06-59.9,259.01-67.14-.02.69-.04,1.03-.06,1.73Z"/><path class="cls-1" d="m1509.35,93.25c-89.25,7.15-174.25,42.81-259.68,67.2-46.1,13.16-123.48,42.5-167.46,9.34-23.92-18.03-30.57-49.53-49.71-71.44-26.7-30.57-68.54-25.59-104.63-18.51-67.66,13.28-132.5,39.83-197.44,62.3-54.54,18.87-115.17,43.29-173.9,41.79-35.26-.91-57.69-17.93-77.54-45.55-18.57-25.82-36-48.48-69.56-53.46-60.93-9.05-129.24,26.61-183.84,48.76C155.25,162.21,78.1,201.49.27,196.92c0-.44,0-.66,0-1.1,77.82,4.01,154.76-35.24,225.12-63.8,54.56-22.15,122.85-57.73,183.75-48.69,33.46,4.97,50.68,27.52,69.03,53.35,19.64,27.65,41.93,44.55,77.09,45.46,59.01,1.51,119.99-22.97,174.84-41.8,65.42-22.46,130.75-49.01,198.86-62.32,35.83-7,78-12.3,104.27,18.52,18.7,21.94,24.66,53.41,48.25,71.48,43.6,33.4,121.69,3.66,167.47-9.42,85.69-24.48,170.98-60.27,260.51-67.46-.04.84-.06,1.27-.1,2.12Z"/><path class="cls-1" d="m1508.6,110.76c-86.65,6.64-168.97,41.12-251.87,64.75-48.74,13.89-120.46,39.59-167.7,8.71-27.14-17.75-39.87-49.35-62.99-71.11-30.12-28.36-69.7-26.34-107.88-18.55-63.51,12.95-123.9,39.56-184.41,62.03-51.6,19.16-108.88,43.1-164.97,41.73-36.32-.89-60.2-18.96-81.96-46.34-20.51-25.79-39.88-49.36-74.46-54.55-61.27-9.21-129.76,26.76-184.75,48.85C157.26,174.53,78.31,213.94.48,204.85c0-.4,0-.6,0-1.01,77.84,8.43,156.52-30.99,226.88-59.3,54.91-22.1,123.37-58.04,184.58-48.85,34.42,5.17,53.48,28.61,73.7,54.4,21.49,27.41,45.14,45.32,81.3,46.2,56.51,1.38,114.31-22.63,166.38-41.76,61.18-22.47,122.24-49.07,186.38-62.06,37.9-7.68,77.71-10.12,107.35,18.57,22.48,21.76,34.31,53.5,60.99,71.16,46.98,31.09,119.12,5.01,167.67-8.83,83.28-23.75,166.01-58.4,253.05-65.11-.06,1-.08,1.49-.14,2.5Z"/><path class="cls-1" d="m1507.7,128.96c-83.57,5.99-162.75,39.15-242.66,61.87-51.32,14.59-117.77,36.2-168.12,7.86-31.15-17.53-50.54-49.06-78.32-70.73-33.22-25.91-71.88-27.17-111.85-18.58-58.7,12.62-113.9,39.26-169.25,61.72-47.95,19.46-101.15,42.86-153.98,41.64-77.71-1.79-95.35-92.14-167.54-103.14-61.79-9.41-130.4,26.53-186.01,48.5C159.33,186.02,78.49,225.25.69,211.53c0-.38,0-.58,0-.97,77.81,12.98,158.35-26.29,228.95-54.27,55.49-21.99,124.09-57.95,185.78-48.55,35.68,5.43,56.96,29.81,79.32,55.64,23.57,27.22,49,46.27,86.42,47.13,53.37,1.23,107.23-22.26,155.79-41.68,56.18-22.46,112.21-49.1,171.68-61.76,39.7-8.46,78.43-7.71,111.18,18.59,27.01,21.69,45.37,53.24,75.86,70.79,49.91,28.72,117.12,6.47,168.06-8.02,80.39-22.87,160.07-56.24,244.14-62.32-.07,1.14-.11,1.71-.18,2.85Z"/><path class="cls-1" d="m1506.72,147.51c-80.26,5.26-156.07,37.03-232.75,58.77-53.46,15.16-115.7,32.73-168.6,6.91-35.72-17.43-61.79-48.75-94.69-70.33-35.8-23.48-74.82-28.08-116.23-18.59-53.61,12.29-103.2,38.95-153.01,61.4-43.93,19.8-92.6,42.59-141.91,41.54-80.43-1.72-104.44-93.96-179.58-105.57-62.39-9.64-131.11,26.1-187.46,47.93C161.35,197.13,78.63,235.9.91,217.58c0-.4,0-.6,0-1,77.75,17.52,160.14-21.34,231.19-48.96,56.21-21.85,124.92-57.63,187.19-48.01,74.62,11.52,97.55,103.44,177.51,105.15,49.92,1.07,99.37-21.83,144-41.57,50.76-22.45,101.32-49.11,155.79-61.44,41.19-9.33,80.06-5.27,115.46,18.61,32.01,21.59,56.96,52.96,91.88,70.39,52.52,26.22,115.4,7.97,168.53-7.1,77.23-21.91,153.62-53.92,234.44-59.29-.08,1.26-.12,1.9-.2,3.16Z"/><path class="cls-1" d="m1505.73,166.08c-76.39,4.51-148.27,34.48-221.19,55.2-56.67,16.11-117.13,30.38-173.25,5.2-79.18-35.53-133.77-111.07-230.06-87.15-90.5,22.48-168.26,103.28-264.53,102.27-84.78-.89-114.88-97.09-194.76-108.23-63.11-8.8-131.55,26.64-188.76,48.35C161.81,208.81,78.25,246.33,1.14,223.63c0-.46,0-.68,0-1.13,77.16,21.86,160.4-15.79,231.63-42.92,57.07-21.74,125.49-57.19,188.49-48.42,79.33,11.04,108.3,106.9,192.58,107.78,97.67,1.02,177.64-79.82,269.68-102.36,43.66-10.69,84.99-2.8,123.37,20.03,35.25,20.97,65.43,50,102.95,67.21,55.79,25.6,116.76,10.64,173.15-5.4,73.49-20.9,145.98-51.13,222.97-55.75-.09,1.37-.13,2.05-.22,3.42Z"/><path class="cls-1" d="m1504.8,184.33c-73.33,3.91-142.06,32.51-212.01,52.33-57.84,16.39-116.19,27.47-173.73,4.31-81.95-32.99-153.34-112.39-249.38-86.8-82.92,22.09-148.76,102.68-238.16,101.87-87.46-.8-123.21-98.79-205.95-110.5-63.62-9.01-132.21,26.41-190.03,47.98-72.09,26.9-157.23,63.7-234.17,36.78,0-.57,0-.85,0-1.4,77,26.07,161.83-10.88,233.78-37.81,57.71-21.6,126.26-56.99,189.78-48.01,82.19,11.63,116.86,109.27,203.83,110.07,90.66.83,158.83-79.8,243.17-101.95,96.06-25.23,164.24,53.46,245.68,86.89,57.31,23.52,116.02,11.85,173.67-4.5,70.51-20,139.84-48.86,213.75-52.87-.09,1.45-.13,2.17-.21,3.6Z"/><path class="cls-1" d="m1504.02,201.92c-125.41,6.15-249.46,99.83-375.62,54.39-85.43-30.77-172.1-115.28-269.4-87.14-76,21.98-130.49,101.11-213.7,101.37-89.41.28-129.79-97.9-213.39-112.13-65.24-11.11-136.7,26.39-196.14,48.31-72.38,26.69-158.09,62.14-234.18,31.51,0-.74,0-1.11,0-1.82,76.16,29.79,161.59-5.79,233.84-32.48,59.36-21.93,130.78-59.33,195.94-48.23,83.12,14.16,122.56,112.02,211.55,111.76,84.17-.25,140.92-79.41,218.07-101.44,97.29-27.79,181.01,56.12,266.05,87.22,126.01,46.08,251.77-48.81,377.18-55.02-.08,1.49-.12,2.23-.19,3.7Z"/><path class="cls-1" d="m1503.46,218.5c-125.01,5.97-243.25,95.12-369.5,52.14-87.01-29.62-184.98-116.22-282.46-86.94-72.06,21.65-117.16,100.78-197.28,101.14-90.98.41-134.94-98.9-220.24-113.5-65.39-11.19-137.03,27.04-196.58,48.99-72.97,26.89-159.81,61.85-235.6,27.7,0-.99,0-1.48,0-2.42,75.88,33.34,162.48-1.72,235.34-28.54,59.56-21.93,131.14-59.93,196.51-48.73,84.97,14.56,128.24,113.66,218.94,113.24,80.6-.38,127.65-79.49,200.41-101.2,97.43-29.06,193.19,57.19,279.89,87,126.31,43.43,245.56-46.63,370.72-52.58-.06,1.49-.09,2.24-.15,3.7Z"/><path class="cls-1" d="m1503.22,233.73c-123.07,6.15-238.62,91.86-363.02,51.99-53.31-17.09-102.21-45.49-153.67-67.11-43.34-18.21-93.11-34.91-140-20.49-71.83,22.08-110.27,103.02-192.11,100.87-90.07-2.37-135.69-101.13-221.71-114.45-65.56-10.15-136.74,29.45-196.09,51.53-72.75,27.07-159.87,61.21-234.6,24.25,0-1.33,0-1.98,0-3.24,74.85,36.21,161.79,2.06,234.48-24.88,59.47-22.03,130.57-61.22,196.2-51.03,85.93,13.34,131.23,112,221.25,114.36,81.65,2.14,121.46-78.76,193.31-100.88,46.79-14.4,96.57,2.21,139.78,20.49,51.09,21.62,99.55,50.12,152.53,67.14,124.68,40.06,240.4-46.1,363.72-52.12-.03,1.45-.05,2.17-.07,3.58Z"/><path class="cls-1" d="m1503.57,247.61c-122.58,7.05-239.91,90.22-363.55,50.85-52.83-16.82-101.41-44.61-152.45-65.87-43.21-17.99-93.11-34.99-139.84-20.7-72.11,22.05-111.37,103.31-193.33,101.24-89.96-2.28-134.82-100.87-220.59-114.26-65.55-10.24-137.11,30.4-196.36,52.56-72.85,27.24-161.11,61.86-235.47,22.98.06-1.43.08-2.15.12-3.6,74.44,38.38,162.35,3.86,235.13-23.37,59.21-22.15,130.62-62.57,196.12-52.35,85.9,13.41,131.14,112.08,221.21,114.36,81.92,2.07,120.54-79.07,192.54-101.08,46.83-14.31,96.72,2.68,140,20.75,51.28,21.41,100.09,49.4,153.18,66.34,123.83,39.52,240.53-44.51,363.21-51.36.03,1.42.05,2.12.1,3.51Z"/><path class="cls-1" d="m1504.37,260.63c-123.46,7.19-244.44,87.35-368.44,46.93-50.93-16.6-97.89-43.09-147.4-63.22-41.35-16.81-88.65-32.35-133.33-20.27-74.99,20.26-117.14,104.47-200.53,103.21-88.81-1.34-131.38-97.57-214.65-112.91-66.88-12.32-142.33,30.72-202.7,53.05-72.92,26.97-162.16,61.18-235.94,20.76.11-1.48.17-2.22.27-3.71,73.74,39.87,162.51,5.69,235.21-21.29,60.25-22.36,135.43-65.21,202.2-52.92,83.6,15.39,126.86,111.76,215.95,113.11,83.1,1.27,124.3-82.72,198.93-102.88,44.83-12.11,92.24,3.61,133.67,20.54,49.91,20.38,97.26,47.17,148.6,64,124.27,40.74,244.36-40.66,367.95-47.89.08,1.41.12,2.11.2,3.51Z"/><path class="cls-1" d="m1505.49,273.01c-121.88,6.46-246.02,81.09-367.95,43.48-85.76-26.45-183.04-105.5-277.15-79.36-75.75,21.04-122.19,104.82-205.87,104.56-88.85-.28-128.67-98.31-211.93-112.43-30.37-5.15-60.31,3.07-89.15,12.21-39.08,12.37-77.04,28.06-115.55,42.03-73.54,26.67-163.91,60.24-237.51,18.16.16-1.53.24-2.3.39-3.84,74.07,41.74,164.63,7.46,238.3-19.49,60.71-22.21,136.96-65.65,204.12-53.14,82.19,15.3,122.69,111.12,210.63,112.26,84.31,1.09,129.23-83.81,205.44-104.26,93.75-25.16,191.09,53.2,276.11,80.36,123.26,39.37,246.72-37.29,369.82-44.06.11,1.42.17,2.13.3,3.53Z"/><path class="cls-1" d="m1506.83,284.94c-121.65,5.33-249.13,74.14-370.31,38.26-84.46-25.01-176.63-98.88-268.88-73.52-78.13,21.48-129.14,106.39-214.87,106.37-87.22-.02-123.3-97.31-204.6-111.26-30.49-5.23-60.71,3.1-89.7,12.14-39.78,12.41-78.46,28.13-117.71,42.05-74.98,26.6-167.44,60.03-241.71,15.98.2-1.6.29-2.39.48-3.99,74.07,43.39,165.87,9.89,240.4-16.74,39.01-13.94,77.46-29.65,117.01-42.05,28.93-9.07,59.05-17.35,89.49-12.13,81.91,14.04,119.2,111.57,206.95,111.62,85.04.06,134.6-84.5,211.97-105.81,92.85-25.57,186.65,49.97,271.54,75.43,121.38,36.41,247.87-34.25,369.57-39.95.15,1.45.22,2.17.37,3.6Z"/><path class="cls-1" d="m1508.3,296.62c-69.01,2.23-136.07,18.58-203.81,30.43-57.45,10.05-114.92,17.75-171.85,1.22-82.03-23.82-168.2-90.68-257.58-65.98-80.34,22.2-135.67,107.06-223.21,108.03-86.63.96-118.8-97.53-199.43-110.17-27.93-4.38-55.9,2.6-82.59,10.51-39.89,11.83-78.65,27.27-117.9,41.01-78.32,27.42-177.02,63.99-254.36,16.48.22-1.67.33-2.5.55-4.17,77.1,46.79,175.04,10.14,252.82-17.31,60.4-21.32,133.48-61.87,199.51-51.53,81.3,12.73,114.86,111.5,202.07,110.59,86.7-.9,140.47-85.42,219.89-107.43,90.05-24.96,178.05,43.78,260.56,68.12,57.19,16.88,114.35,9.12,172.02-1.51,67.41-12.44,134.08-29.53,202.88-32,.17,1.49.25,2.23.42,3.72Z"/><path class="cls-1" d="m1509.8,308.25c-69.2,1.42-137,15.27-205.27,25.27-56.31,8.25-114.72,16.05-170.57,1.2-81.63-21.7-162.82-84.11-251.02-59.59-82.53,22.94-142.63,107.66-231.99,109.66-84.72,1.9-112.15-94.13-189.2-108.52-29.71-5.55-60.1,2.29-88.5,10.68-40.5,11.96-79.93,27.33-119.88,40.94-79.57,27.1-179.66,62.73-257.32,13.44.23-1.75.34-2.62.57-4.37,77.41,48.54,176.71,12.82,255.72-14.31,39.68-13.63,78.84-28.99,119.08-40.95,28.35-8.42,58.61-16.21,88.28-10.68,77.73,14.48,106.67,110.82,191.95,108.95,88.42-1.95,146.9-86.33,228.42-109.08,88.96-24.83,172.06,39.59,254.24,61.89,56.07,15.21,114.22,7.3,170.72-1.54,67.93-10.62,135.34-25.23,204.31-26.9.18,1.56.26,2.34.44,3.9Z"/><path class="cls-1" d="m1511.24,320.01c-69.39.71-137.83,12.18-206.57,20.43-57.24,6.87-117.57,14.5-174.19-.11-79.03-20.39-154.63-75.98-239.73-52.24-85.78,23.93-152.26,112-245.47,111.13-81.26-.76-104.4-94.74-179.36-107.62-30.07-5.17-60.88,3.16-89.55,11.6-41.07,12.09-81.13,27.41-121.74,40.89-80.84,26.83-182.02,61.57-259.99,10.52.22-1.84.33-2.76.55-4.59,78.24,50.54,179.79,15.02,260.44-12.05,40.45-13.57,80.36-28.95,121.34-40.91,28.45-8.3,59.05-16.19,88.78-10.57,75.75,14.33,100.24,109.71,184.02,107.67,91.17-2.23,154.31-87.55,238.85-110.74,86.68-23.78,164.31,34.81,244.82,55.3,55.46,14.11,114.32,6.54,170.29-.65,68.9-8.86,137.44-21.24,207.08-22.18.17,1.65.26,2.48.42,4.14Z"/><path class="cls-1" d="m1512.52,332.09c-70,.23-139.37,9.68-208.94,16.38-56.85,5.47-117.48,12.76-173.7-.8-77.23-18.63-148.3-68.97-231.02-46.39-88.58,24.18-159.49,113.04-255.19,112.28-80.03-.63-99.16-93.75-172.49-106.53-30.15-5.26-61.21,3.18-89.98,11.55-41.71,12.14-82.43,27.5-123.72,40.96-82.23,26.8-185.48,61.46-264.05,8.47.18-1.95.28-2.92.48-4.86,78.42,52.22,180.94,17.53,262.7-9.29,41.05-13.46,81.53-28.8,123.02-40.91,28.72-8.39,59.69-16.76,89.8-11.52,73.86,12.85,94.38,106.26,174.84,106.89,94.83.74,164.16-87.87,251.77-111.95,83.59-22.97,156.19,29.22,234.08,48.46,56.35,13.92,116.92,6.5,173.89.55,69.28-7.23,138.33-17.4,208.12-17.76.15,1.77.23,2.66.37,4.46Z"/><path class="cls-1" d="m1513.54,344.7c-72.19.07-143.96,8.18-215.86,13.64-54.41,4.13-112.47,10.55-166.3-1.25-74.68-16.37-141.67-62.31-221.27-43.1-93.37,22.53-167.11,113.17-266.43,113.75-79.48.47-94.83-90.53-165.79-104.99-31.79-6.47-64.89,2.78-95.26,11.7-42.05,12.36-83.16,27.76-124.89,41.12-82.91,26.54-186.82,60.64-265.16,6.1.13-2.07.2-3.1.36-5.15,78.32,53.78,181.57,19.72,264.15-6.81,41.54-13.34,82.47-28.71,124.34-41.01,30.34-8.91,63.39-18.09,95.15-11.63,71.31,14.5,87.85,105.77,167.55,105.26,98.55-.64,170.92-91.15,263.44-113.65,80.5-19.58,148.61,27.91,224.02,44.8,53.88,12.07,111.99,5.58,166.46,1.1,71.68-5.9,143.2-14.65,215.22-14.73.12,1.92.18,2.89.28,4.86Z"/><path class="cls-1" d="m1514.19,358c-71.99.38-143.7,6.99-215.49,11.6-54.28,3.49-111.94,9.93-165.73-.93-73.96-14.94-139.47-58.79-217.91-39.94-94.54,22.71-170.8,111.88-270.97,113.29-38.04.53-64.77-18.13-88.2-46.23-21.79-26.13-41.82-52.03-77.3-58.68-29.5-5.52-59.45,2.52-87.72,10.55-41.57,11.81-82.11,27.07-123.18,40.45-85.29,27.8-195.19,65.39-275.52,7.54.05-2.21.09-3.31.18-5.49,78.36,55.51,183.21,21.22,266.51-5.38,41.96-13.4,83.28-28.87,125.54-41.33,30.37-8.95,63.44-18.28,95.23-11.74,35.33,7.26,55.4,34.11,77.45,60,23.13,27.15,49.32,44.85,86.23,44.63,100.36-.6,175.97-91.3,270.58-113.71,78.23-18.53,143.8,25.33,217.36,40.94,53.84,11.43,111.77,5.06,166.17,1.37,72.17-4.9,144.24-12.09,216.64-12.28.07,2.11.09,3.18.13,5.35Z"/><path class="cls-1" d="m1514.36,372.01c-72.46.66-144.68,6.95-216.97,11.39-54.49,3.35-112.26,9.89-166.18-1.44-71.59-15.05-134.15-56.84-210.39-39.05-96.16,22.44-176.03,112.13-277.56,112.79-36.89.24-63.13-17.35-85.86-44.84-21.52-26.03-40.9-52.56-76.14-59.54-31.75-6.29-64.72,3.21-95.03,12.05-42.49,12.4-84.13,27.6-126.39,40.75-83.13,25.87-189.25,60.44-267.6,5.8.01-2.36.02-3.53.03-5.81,80.22,57.92,190.74,20.08,275.97-7.58,41.15-13.35,81.77-28.58,123.4-40.44,28.23-8.04,58.07-16.12,87.53-10.62,35.46,6.62,55.21,32.39,76.81,58.61,23.32,28.29,50.14,46.79,88.22,46.23,100.64-1.47,178.35-90.29,273.55-112.88,77.52-18.39,142.14,24.5,215.25,39.14,53.88,10.79,111.44,4.24,165.81.91,71.85-4.4,143.63-10.55,215.65-11.25-.02,2.31-.03,3.46-.08,5.76Z"/><path class="cls-1" d="m1514.02,386c-70.97.61-141.68,6.87-212.46,11.42-54.99,3.53-114.13,10.67-168.53-1.1-31.44-6.8-59.88-21.59-90.29-31.48-37.36-12.14-77.86-16.29-116.25-6.84-50.91,12.53-97.52,39.75-144.04,63.05-41.64,20.85-87.81,45.22-135.44,46.69-37.45,1.16-64.85-16.55-87.78-44.58-21.43-26.19-40.61-53.05-76.33-59.19-29.72-5.1-60.83,3.58-89.29,11.42-43.04,11.86-85.29,26.46-128.03,39.33-83.51,25.13-192.68,60.78-273.18,10.32,0-2.62,0-3.92.02-6.47,79.49,52.18,187.2,17.13,270.4-8.32,42.48-13,84.44-27.79,127.21-39.87,28.71-8.11,59.8-16.97,89.89-12.1,36.1,5.85,55.65,31.96,77.31,58.45,22.57,27.61,48.49,46.06,85.57,46.21,48.48.2,95.95-25.76,137.8-47.34,45.43-23.43,90.86-50.86,140.81-63.56,76.8-19.52,136.97,21.79,208.67,37.72,55.86,12.41,116.33,5.08,172.83,1.49,70.43-4.48,140.79-10.58,211.4-11.19-.09,2.38-.15,3.56-.27,5.94Z"/><path class="cls-1" d="m1513.32,399.94c-71.02.62-141.76,7.2-212.58,11.93-54.28,3.63-113.27,11.29-166.88-1.37-28.01-6.62-52.87-20.88-79.79-30.49-36.37-12.99-76.12-16.26-113.86-7.72-53.01,11.99-102.34,38.47-151.43,60.93-43.83,20.05-91.94,43.81-141.07,44.94-37.75.87-64.1-16.82-86.77-45.34-21.31-26.8-40.23-52.44-76.73-56.8-28.14-3.36-57.18,4.72-84.13,11.88-43.57,11.58-86.44,25.69-129.74,38.21-84.36,24.39-194.85,60.49-277.76,14.92,0-2.85,0-4.26,0-7.06,82.09,47.82,192.48,11.6,276.65-13.21,43.06-12.69,85.68-27.03,129.06-38.66,26.93-7.22,55.86-15.11,83.97-11.45,36.66,4.77,55.86,30.68,77.45,57.59,22.85,28.48,49.39,46.37,87.24,45.46,48.59-1.17,95.89-25.3,138.85-45.79,48.02-22.89,96.26-49.92,148.46-62.09,38.13-8.89,78.26-5.01,115.11,7.66,28.06,9.65,54.2,23.88,83.29,30.59,54.08,12.46,113.14,5.05,167.87,1.47,71.04-4.65,142-11.12,213.23-11.73-.16,2.45-.25,3.67-.43,6.12Z"/><path class="cls-1" d="m1512.33,413.83c-69.24.66-138.17,7.28-207.18,12.22-53.9,3.86-114.31,12.52-167.49-.66-25.75-6.38-47.63-21.05-72.08-30.61-34.11-13.34-72.25-15.14-107.96-8.06-55.93,11.08-108.7,36.73-161.1,58.32-46.43,19.13-97.59,42.34-148.72,42.56-36.04.15-61.53-16.87-83.05-44.35-19.86-25.36-37.29-50.34-71.61-54.92-30.47-4.07-62.68,5.9-91.81,13.59-45.06,11.9-89.55,25.89-134.5,38.22-84.09,23.06-190.43,56.59-274.08,17.52,0-3.04,0-4.55,0-7.55,82.04,41.33,187.32,8.1,270.5-14.88,44.58-12.31,88.61-26.53,133.28-38.52,29.5-7.92,61.47-17.8,92.34-13.92,34.58,4.35,53.01,28.93,73.03,54.47,22.35,28.51,48.18,46.79,85.98,46.3,50.09-.66,99.99-24.33,145.07-43.88,50.81-22.03,101.92-47.89,156.44-59.48,36.26-7.71,74.42-5.38,109.32,7.34,26.81,9.77,50.91,25.07,79,31.54,52.03,11.99,109.34,4.36,162.02.77,71.02-4.84,141.93-11.67,213.16-12.31-.22,2.53-.33,3.79-.56,6.31Z"/><path class="cls-1" d="m1511.19,427.69c-69.11.74-137.86,7.74-206.73,12.93-51.41,3.88-110.13,13.02-160.93.12-23.54-5.97-41.8-20.48-63.56-30.23-34.1-15.27-73.87-14.89-109.89-7.87-56.67,11.05-110.77,34.05-164.73,53.89-48.98,18.01-103.09,40.35-156.16,39.9-35.87-.3-60.31-17.04-81.33-44.83-19.24-25.43-36.61-49.36-71.21-52.09-28.92-2.29-59.41,7.41-87.04,14.55-45.79,11.82-91.09,25.43-136.8,37.55-86.26,22.87-192.66,56.45-279.85,23,0-3.19,0-4.78,0-7.95,85.09,35.92,191.18,2.63,275.98-20.18,45.28-12.18,90.13-25.93,135.49-37.8,29.13-7.62,61.5-17.89,91.97-14.22,34.01,4.1,51,28.74,70.44,53.88,21.29,27.53,46.54,44.05,82.39,43.93,52.08-.19,104.34-22.68,152.11-41.21,53.91-20.91,108.21-45.76,165.37-56.42,34.95-6.51,72.8-5.58,105.99,8.25,22.84,9.52,42.78,24.16,67.06,30.39,52.36,13.45,112.79,4.33,165.9.41,68.67-5.07,137.26-11.83,206.16-12.52-.25,2.6-.38,3.91-.64,6.51Z"/><path class="cls-1" d="m1509.98,441.54c-68.95.83-137.5,8.22-206.18,13.68-49.94,3.97-108.73,14.25-157.72.1-20.67-5.97-34.98-20.67-53.76-30.06-31.27-15.65-70.52-13.26-103.83-7.65-59.53,10.02-116.85,31.73-174.04,50.35-50.63,16.48-104.68,36.15-158.55,36.9-36.25.51-61.52-13.88-82.74-42.37-18.55-24.91-34.49-48.95-68.33-51.36-31.73-2.26-65.42,9.53-95.66,17.37-43.45,11.26-86.63,23.52-130.1,34.66-88.86,22.79-194.93,55.9-285.89,28.55,0-3.29,0-4.94,0-8.23,89.6,30.41,196.19-3.28,284.14-26.24,43.15-11.27,85.99-23.71,129.14-34.97,30.12-7.86,63.71-19.38,95.33-16.67,34.12,2.92,50.47,27.36,69.41,52.45,21.47,28.44,47.04,43.34,83.49,42.71,52.94-.91,105.99-21.29,155.39-38.34,55.8-19.26,111.72-41.7,170.06-52.14,34.24-6.13,73.14-7.56,105.49,7.52,20.26,9.44,36.59,24.22,58.55,30.3,49.89,13.81,108.54,4.04,159.31.11,69.01-5.34,137.9-12.58,207.16-13.36-.27,2.69-.41,4.03-.68,6.71Z"/><path class="cls-1" d="m1508.81,455.39c-68.81.91-137.16,8.7-205.68,14.41-47.69,3.98-107.91,15.55-154.46.05-17.47-5.81-27.16-19.66-42.33-28.81-28.37-17.11-68.91-13.08-99.98-8.55-62.33,9.07-122.9,29.53-183.22,46.98-53.32,15.43-109.62,33.67-165.66,33.98-36.05.2-60.44-14.05-81.09-42.66-18.25-25.29-33.75-47.78-68.2-48.1-30.15-.28-61.67,10.57-90.58,17.92-44.14,11.21-88.09,23.13-132.29,34.08-91.49,22.65-197.38,54.73-291.92,33.95,0-3.34,0-5.02,0-8.4,93.18,24.1,199.78-8.84,290.19-31.67,43.88-11.08,87.5-23.2,131.34-34.42,28.77-7.36,60.22-18,90.27-17.27,34.73.84,50.62,23.75,69.26,49.21,20.92,28.58,45.57,43.27,81.83,42.98,55.14-.43,110.48-19.38,162.63-35.39,58.96-18.1,118.16-39.28,179.31-48.77,32.24-5,71.92-8.01,101.68,8.45,16.55,9.15,28.31,23.16,46.89,29.05,47.61,15.07,107.35,4.11,156.01.15,68.84-5.6,137.53-13.24,206.65-14.1-.27,2.77-.41,4.15-.67,6.93Z"/><path class="cls-1" d="m1507.78,469.27c-68.74.97-136.96,9.14-205.37,15.1-29.27,2.55-58.61,4.73-87.99,5.49-19.84.51-42.01,1.98-61.12-4.65-16.84-5.84-22.46-20.01-36.18-29.53-25.15-17.44-66.85-11.7-94.79-8.18-64.93,8.18-128.34,27.45-191.54,43.77-55.65,14.37-114.3,31.84-172.29,31.49-35.87-.22-59.24-14.31-79.31-43.2-16.68-24.02-31.56-45-63.68-45.07-29.87-.06-61.25,11.21-89.94,18.36-44.76,11.15-89.43,22.63-134.29,33.37-94.36,22.57-199.98,52.87-297.68,38.97,0-3.34,0-5.03,0-8.43,96.44,17.42,202.92-14.03,296.11-36.83,44.56-10.9,88.92-22.62,133.42-33.8,28.57-7.18,59.92-18.24,89.71-17.74,32.37.54,47.59,21.91,64.62,46.07,20.34,28.86,43.93,43.29,80,43.45,57.18.26,114.98-17.84,169.61-32.76,61.96-16.92,124.14-36.9,187.98-45.42,29.22-3.9,69.57-8.71,96.21,8.11,14.97,9.45,22.85,23.92,40.55,29.76,45.08,14.89,104.2,3.26,150.32-.66,68.71-5.85,137.24-13.88,206.26-14.81-.25,2.86-.37,4.29-.6,7.15Z"/><path class="cls-1" d="m1507.02,483.2c-68.27.97-135.99,9.39-203.91,15.54-29.1,2.64-58.26,4.89-87.48,5.67-19.19.51-41.68,2.45-60.08-4.52-15.75-5.97-17.18-19.37-28.92-29.12-22.25-18.5-66.86-11.21-92.35-8.28-66.69,7.67-132.12,25.73-197.34,41-57.27,13.41-117.31,29.94-176.58,29.54-35.61-.24-58.77-13.87-78.37-42.87-16.09-23.8-30.34-44.2-62.05-43.48-29.95.68-61.25,12.25-90.13,19.3-45.17,11.02-90.35,21.99-135.67,32.33-96.58,22.03-200.52,49.68-300.36,42.78,0-3.28.01-4.95.02-8.31,98.84,10.54,203.65-18.55,299.13-40.91,45.08-10.56,89.99-21.81,134.94-32.91,28.75-7.1,60.09-18.53,89.97-18.79,31.9-.29,46.44,20.44,62.82,44.32,19.86,28.96,43.14,42.73,78.89,42.96,58.67.36,118.04-16.62,174.54-30.52,64.2-15.8,128.63-34.47,194.43-42.36,26.78-3.21,69.68-9.68,93.46,8.27,12.74,9.62,16.3,23.43,32.57,29.32,18.77,6.79,41.08,5.08,60.59,4.57,29.3-.78,58.55-2.99,87.73-5.59,68.16-6.06,136.12-14.35,204.62-15.32-.21,2.95-.3,4.43-.47,7.38Z"/><path class="cls-1" d="m1506.61,497.18c-66.27.9-131.97,9.1-197.88,15.35-29.36,2.78-58.76,5.18-88.24,6.13-19.8.64-45.99,3.66-64.95-4.68-14.22-6.26-12.78-18.34-22.38-28.08-19.27-19.55-66.71-11.32-89.93-8.8-68.38,7.44-135.71,24.7-202.79,39.31-58.43,12.73-119.72,28.85-179.93,28.28-34.13-.32-57.17-13.38-75.86-41.4-15.64-23.44-28.75-44.62-60.19-43.92-32.9.74-67.14,14.18-98.98,21.69-46.48,10.97-93.07,21.52-139.79,31.45-95.21,20.24-193.95,43.6-291.77,43.58.02-3.16.02-4.77.04-8.05,97.28,3.55,196.71-21.34,291.1-42.06,46.54-10.22,92.92-21.13,139.25-32.27,31.72-7.63,66.05-21.01,98.92-21.36,31.52-.34,44.85,21.05,60.71,44.51,18.9,27.96,41.96,40.92,76.14,41.25,59.93.58,120.77-15.71,178.81-28.84,66.38-15.01,133.03-32.77,200.82-40.22,24.16-2.66,70.17-10.31,90.59,8.88,10.23,9.61,10.45,22.17,24.91,28.21,19.34,8.07,44.83,5.34,64.97,4.69,29.53-.96,58.98-3.33,88.39-6.08,66.05-6.18,131.9-14.28,198.31-15.21-.13,3.05-.19,4.57-.27,7.63Z"/><path class="cls-1" d="m1506.67,511.23c-66.19.92-131.81,9.09-197.62,15.35-29.33,2.79-58.72,5.19-88.17,6.15-19.62.65-46.83,3.92-65.58-4.74-14.09-6.51-11.22-17.79-20.29-27.72-18.19-19.93-66.98-11.11-89.34-8.6-68.81,7.72-136.68,24.21-204.36,38.31-58.57,12.21-120.32,28.48-180.54,28.07-33.94-.23-57.39-13.55-75.82-41.48-15.45-23.4-28.25-44.01-59.52-43.27-32.85.78-66.93,14.27-98.81,21.51-46.6,10.59-93.36,20.5-140.21,29.9-96.21,19.31-194.14,40.12-292.36,45.27,0-2.9.02-4.49.04-7.62,98.13-2.85,196.42-24.87,292.24-44.67,46.8-9.67,93.48-19.89,140.03-30.68,31.85-7.38,65.95-20.84,98.8-21.79,31.39-.91,44.33,20.24,59.83,43.66,18.59,28.09,41.74,41.28,75.89,41.54,60.33.45,121.87-15.64,180.48-28.13,67.45-14.37,135.14-31.28,203.81-38.78,22.55-2.46,71.02-11.05,89.45,8.76,9.24,9.93,6.77,21.5,20.92,27.99,18.71,8.6,45.75,5.29,65.32,4.66,29.46-.95,58.84-3.36,88.18-6.16,65.83-6.29,131.45-14.55,197.65-15.4-.04,3.15-.04,4.74,0,7.87Z"/><path class="cls-1" d="m1507.31,525.05c-66.29,1.1-132.09,8.72-198.06,14.62-29.4,2.63-58.83,4.91-88.34,5.92-19.87.68-46.59,3.69-65.65-4.68-13.84-6.08-11.59-16.74-20.73-26.15-18.84-19.41-66.47-10.73-89.13-8.2-68.92,7.7-137.02,23.03-205,36.3-58.76,11.47-120.82,27.39-181.05,27.05-32.73-.19-56.93-12.27-74.97-39.32-15.25-22.87-27.54-41.23-57.85-41.31-32.85-.08-66.89,13.01-98.78,19.89-46.67,10.07-93.5,19.4-140.41,28.28-96.73,18.31-194.7,37.6-293.1,43.86,0-2.26,0-3.48,0-6.13,98.32-5.81,196.27-26.03,292.72-45.02,46.86-9.22,93.62-18.92,140.23-29.34,31.83-7.12,65.89-20.54,98.71-20.85,30.92-.29,43.52,19.5,58.92,42.72,18.32,27.61,42.17,40.52,75.68,40.72,60.22.35,122.13-15.9,180.76-27.84,67.78-13.81,135.71-29.85,204.53-37.62,22.41-2.53,70.75-11.3,89.09,8.51,9.07,9.79,6.45,20.81,20.47,27.17,18.89,8.57,45.92,5.41,65.66,4.74,29.47-1,58.87-3.37,88.22-6.1,65.86-6.13,131.54-14.1,197.75-15.11.09,3.18.16,4.76.32,7.9Z"/><path class="cls-1" d="m1508.41,538.56c-66.51,1.08-132.63,7.96-198.88,13.31-29.52,2.38-59.07,4.47-88.67,5.42-20.2.65-46.35,3.45-65.87-4.31-13.45-5.35-12.21-15.08-21.39-23.72-19.53-18.36-66.38-9.85-89.2-7.5-69.17,7.12-137.69,20.94-206.12,32.97-59.31,10.42-121.5,25.04-182.01,24.78-31.13-.13-55.37-9.95-73.07-35.69-14.96-21.75-26.07-37.32-55.03-37.69-32.81-.42-66.67,11.59-98.67,17.85-46.82,9.17-93.78,17.63-140.8,25.67-97.33,16.66-195.6,34.02-294.26,40.25,0-1.76,0-2.71,0-4.78,98.53-6.4,196.64-24.94,293.64-42.65,46.94-8.57,93.8-17.57,140.5-27.31,31.89-6.65,65.84-19.37,98.64-19.06,29.91.28,41.47,17.66,56.77,40.05,18.11,26.51,42.1,37.8,74.38,37.94,60.35.27,122.48-15.2,181.47-26.28,68.14-12.81,136.38-27.55,205.37-35.05,22.69-2.47,69.95-11.07,89.01,7.98,9.16,9.15,7.27,19.43,21,25.24,19.26,8.15,45.77,5.22,65.8,4.55,29.54-1,59.02-3.21,88.46-5.75,66.07-5.7,131.99-13.03,198.35-14.14.21,3.19.33,4.78.59,7.93Z"/><path class="cls-1" d="m1509.86,551.84c-66.82.91-133.34,6.91-199.97,11.56-29.68,2.07-59.39,3.89-89.14,4.72-20.62.57-46.1,3.18-66.21-3.71-12.91-4.42-12.95-13.08-22.23-20.64-20.6-16.81-66.24-8.63-89.48-6.57-69.55,6.15-138.61,18.18-207.6,28.66-60.08,9.12-122.31,21.76-183.3,21.57-28.83-.09-53.44-6.85-70.41-30.98-14.25-20.26-24.34-32.54-51.35-32.84-32.75-.37-66.36,10.06-98.49,15.52-47.02,7.99-94.15,15.34-141.32,22.34-98,14.54-196.72,29.64-295.73,35,0-1.4,0-2.14,0-3.77,98.83-6,197.3-22.49,294.92-38.37,47.06-7.66,94.07-15.69,140.95-24.43,32.01-5.96,65.75-17.39,98.5-16.92,28.2.4,38.94,14.74,53.61,35.94,17.42,25.17,41.92,33.8,72.19,33.89,60.71.19,122.93-13.69,182.56-23.64,68.63-11.44,137.33-24.58,206.63-31.34,22.89-2.23,69.34-10.62,89.17,7.19,9.22,8.28,8.45,17.57,21.73,22.56,19.77,7.43,45.68,4.71,66.07,4.08,29.66-.91,59.27-2.9,88.85-5.17,66.38-5.09,132.65-11.63,199.27-12.65.3,3.22.46,4.82.8,8.01Z"/><path class="cls-1" d="m1511.53,564.98c-68.92.66-137.63,5.92-206.41,9.83-46.94,2.66-103.84,12.5-150.09.86-13.08-3.29-14.55-11.06-24.51-17.61-22.43-14.73-66.5-6.87-90.77-5.15-130.46,9.26-260.9,41.31-391.83,41.41-27.16.02-52.38-3.56-68.94-26.55-13.43-18.65-23.48-26.55-48.13-26.25-29.74.36-60.02,7.82-89.39,11.97-46.15,6.52-92.39,12.51-138.64,18.25-102.17,12.68-205,25.9-307.95,29.96,0-1.2,0-1.81-.01-3.14,99.21-4.88,198.17-19.07,296.47-32.72,47.23-6.55,94.41-13.44,141.5-20.93,32.15-5.11,65.61-14.84,98.3-14.54,26.17.24,35.77,11.24,49.73,30.8,16.7,23.41,41.48,28.89,69.35,28.95,61.23.13,123.5-11.62,183.93-20.2,69.2-9.82,138.47-21.13,208.18-26.82,23.39-1.91,68.49-9.92,89.5,6.21,9.29,7.13,9.92,15.32,22.6,19.34,20.38,6.48,45.6,3.96,66.43,3.42,29.81-.77,59.59-2.47,89.34-4.42,66.78-4.37,133.47-9.99,200.42-10.8.36,3.26.55,4.88.94,8.13Z"/><path class="cls-1" d="m1513.31,578.05c-69.34.34-138.55,4.54-207.81,7.6-48.35,2.14-103.12,9.93-151.06.78-12.07-2.3-15.64-8.74-25.53-13.81-24.3-12.46-65.7-5.36-91.24-4.06-131.77,6.74-263.21,31.98-395.26,32.05-24.04.01-49.74-.25-65.43-20.62-12.6-16.37-21.67-20.8-43.7-20.37-29.65.57-59.71,6.36-89.15,9.59-46.39,5.08-92.82,9.78-139.27,14.27-102.91,9.96-206.35,20.55-309.78,22.85,0-1.16,0-1.73-.01-2.91,103.16-3.45,206.25-15.71,308.73-27.42,46.31-5.29,92.59-10.81,138.81-16.8,29.38-3.81,59.52-10.61,89.2-11.08,23.78-.38,33.27,6.37,46.46,24.16,16.36,22.06,41.62,24.39,67.77,24.36,131.36-.15,262.14-29.69,393.1-38.03,24.58-1.57,67.85-9.19,90.81,4.78,9.95,6.05,12.16,13.31,24.91,16.23,46.92,10.73,103.02,1.63,150.52-.85,68.95-3.6,137.84-8.48,206.91-9.02.4,3.32.61,4.98,1.02,8.29Z"/><path class="cls-1" d="m1515.07,591.13c-69.77.02-139.46,3.17-209.18,5.4-49.58,1.59-102.65,7.21-152.01.7-11.03-1.46-16.8-6.46-26.54-10.05-26.52-9.79-64.45-3.83-91.7-2.96-132.97,4.25-265.55,22.88-398.65,22.79-21.61-.02-46.26,2.08-61.97-14.77-12.25-13.13-19.69-15.2-39.31-14.54-76.17,2.55-152.73,12.25-228.78,17.57-103.63,7.25-207.67,15.22-311.6,15.8,0-1.31,0-1.92-.01-3.13,103.64-1.7,207.33-11.36,310.54-20.37,75.56-6.59,152.56-19.8,228.38-21.61,21.21-.51,29.59,3.04,42.07,18.33,15.68,19.21,41.14,18.53,64.3,18.51,132.44-.12,264.27-22.93,396.49-28.77,26.02-1.15,66.31-7.91,91.28,3.69,9.85,4.57,14.2,10.5,25.92,12.48,48.51,8.2,102.64,1.18,151.48-.77,69.42-2.77,138.8-6.6,208.28-6.81.41,3.4.62,5.1,1.02,8.51Z"/><path class="cls-1" d="m1516.7,604.31c-70.17-.23-140.3,1.93-210.45,3.38-50.49,1.05-102.47,4.6-152.88.58-10.2-.81-17.87-4.31-27.48-6.56-28.71-6.71-63.04-2.37-92.08-1.93-134,2.05-267.72,14.61-401.77,14.28-19.88-.05-42.49,3.1-58.85-9.39-11.79-9.01-18.33-9.91-35.24-9.16-180.64,7.95-361.47,22.51-542.41,21.11,0-1.64,0-2.39-.01-3.81,180.84-.14,360.59-22.38,541.03-29.1,18.76-.7,25.69.85,37.82,12.69,15.87,15.5,40.05,12.85,60.99,12.88,133.44.17,266.42-16.37,399.77-19.82,27.8-.72,64.5-6.21,91.71,2.61,9.7,3.15,16.17,7.62,26.9,8.84,49.8,5.63,102.45.73,152.4-.67,69.86-1.96,139.71-4.77,209.61-4.69.39,3.5.58,5.25.93,8.77Z"/><path class="cls-1" d="m1518.06,617.65c-121.53-.61-243.61,6.57-365.07,2.14-40.23-1.47-79.89-4.73-120.6-4.6-134.83.43-269.54,7.66-404.37,7.2-19.14-.07-38.75,2.23-56.33-4.88-10.48-4.24-18.48-5.27-31.79-4.67-180.84,8.22-363.1,13.55-544.13,10.85,0-2.19,0-3.17,0-4.99,180.94,1.93,362.26-9.36,542.94-17.57,15.94-.72,22.42.25,33.97,7.62,16.9,10.78,38.37,7.77,58.09,7.83,134.33.39,268.41-10.38,402.7-11.83,29.45-.32,62.84-4.11,92.04,1.63,9.6,1.88,17.75,4.9,27.79,5.53,120.63,7.54,243.18-3.83,364-3.34.34,3.62.49,5.43.77,9.09Z"/><path class="cls-1" d="m1519.05,631.23c-122.07-.51-244.18,1.95-366.24.77-175.77-1.71-351.63,1.07-527.45.55-28.83-.09-55.82-4.01-83.98-3.1-181.42,5.88-363.93,5.92-545.41,3.51,0-2.95,0-4.27,0-6.71,181.11,2.79,363.56-.46,544.51-8.26,12.07-.52,20.95.39,30.83,3.55,17.76,5.67,37,3.67,55.86,3.73,175.34.63,350.72-6.49,525.8-1.84,121.74,3.23,243.79-2.28,365.57-1.67.25,3.76.35,5.65.51,9.47Z"/><path class="cls-1" d="m1519.53,645.14H-3.86c.01-3.94.02-5.71.02-8.97,209.47,2.24,420.14-.75,628.87-.23,175.94.44,351.9-1.09,527.81-.22,122.17.61,244.35-.89,366.52-.47.12,3.93.15,5.9.15,9.9Z"/></svg>