<?xml version="1.0" encoding="UTF-8"?><svg id="Layer_1" xmlns="http://www.w3.org/2000/svg" width="297.1" height="316.3" viewBox="0 0 297.1 316.3"><defs><style>.cls-1{fill:none;stroke:#f4255c;stroke-width:2px;}</style></defs><path class="cls-1" d="m10.07,123.98l3.17-9.7,30.62,9.99-3.17,9.7-30.62-9.99Z"/><path class="cls-1" d="m17.95,101.56l8.07-12.8c1.59-2.52,3.21-4.35,4.86-5.48,1.65-1.13,3.42-1.81,5.31-2.04,1.89-.22,3.81-.04,5.76.55,1.95.59,3.85,1.47,5.71,2.64,2.91,1.84,4.96,3.6,6.13,5.29,1.18,1.69,1.93,3.48,2.25,5.37.32,1.89.23,3.64-.28,5.24-.69,2.2-1.53,4.07-2.49,5.6l-8.07,12.8-27.25-17.17Zm11.6-4.73l14.89,9.38,1.33-2.11c1.13-1.8,1.75-3.2,1.84-4.21.09-1.01-.22-2.03-.92-3.08s-2.14-2.25-4.32-3.63c-2.89-1.82-5.17-2.58-6.84-2.29-1.67.29-3.21,1.55-4.62,3.78l-1.36,2.15Z"/><path class="cls-1" d="m74.41,75.22l-8.86,7.42,2.18,5.11-7.97,6.68-11.19-32.65,8.52-7.13,30.18,16.74-8.18,6.85-4.68-3.02Zm-6.09-3.98l-10.22-6.54,4.67,11.19,5.55-4.65Z"/><path class="cls-1" d="m97.34,55.52l9.3-2.79c.55,1.45,1.24,2.49,2.05,3.13,1.32,1.03,2.93,1.32,4.82.88,1.42-.33,2.43-.91,3.04-1.74s.82-1.67.62-2.53c-.19-.81-.72-1.46-1.61-1.93-.88-.47-2.71-.68-5.5-.63-4.57.06-7.97-.48-10.2-1.63-2.24-1.15-3.65-2.94-4.22-5.4-.38-1.61-.26-3.25.36-4.9.62-1.66,1.79-3.12,3.52-4.39,1.73-1.27,4.26-2.3,7.6-3.08,4.1-.96,7.4-.95,9.9.04,2.5.99,4.34,3.06,5.51,6.21l-9.22,2.73c-.58-1.35-1.34-2.26-2.29-2.71-.95-.46-2.12-.52-3.52-.19-1.15.27-1.97.71-2.44,1.33-.47.61-.63,1.26-.47,1.95.12.5.46.89,1.04,1.18.56.31,1.76.43,3.6.38,4.55-.1,7.87.09,9.96.59,2.09.5,3.73,1.33,4.91,2.52,1.18,1.18,1.97,2.63,2.37,4.34.47,2.01.34,4-.4,5.96s-2.03,3.62-3.87,4.98c-1.84,1.36-4.31,2.4-7.42,3.13-5.46,1.28-9.48,1.14-12.06-.42-2.58-1.56-4.38-3.89-5.4-6.99Z"/><path class="cls-1" d="m131.7,26.54l10.59,1.06,5.07,23.81,9.6-22.33,10.28,1.03-15.39,30.83-10.98-1.1-9.17-33.29Z"/><path class="cls-1" d="m183.05,65.78l-10.53-4.77-3.66,4.18-9.47-4.29,24.56-24.24,10.12,4.58-2,34.45-9.72-4.4.69-5.52Zm.95-7.22l1.46-12.05-8.05,9.07,6.59,2.98Z"/><path class="cls-1" d="m214.25,53.44l7.46,6.93-16.52,17.79,11.65,10.81-5.4,5.81-19.11-17.74,21.92-23.61Z"/><path class="cls-1" d="m240.93,81.04l13.31,23.83-6,3.35-8.33-14.92-4.47,2.5,7.73,13.84-5.74,3.2-7.73-13.84-5.54,3.1,8.57,15.35-6.37,3.56-13.55-24.26,28.12-15.7Z"/><path class="cls-1" d="m263.18,174.23l-4.03,16.44c-.88,3.58-2.37,6.06-4.47,7.44-2.1,1.38-4.69,1.69-7.76.94-3.16-.77-5.39-2.35-6.69-4.73-1.3-2.38-1.47-5.56-.49-9.55l1.33-5.42-11.61-2.84,2.43-9.94,31.29,7.66Zm-15.77,6.67l-.59,2.42c-.47,1.91-.47,3.33-.01,4.26.46.93,1.19,1.52,2.2,1.77.98.24,1.9.11,2.74-.39.85-.5,1.5-1.68,1.95-3.53l.69-2.82-6.98-1.71Z"/><path class="cls-1" d="m238.37,204.04c4.45,2.81,7.1,6.26,7.98,10.36.88,4.1-.12,8.41-2.98,12.93-2.93,4.64-6.41,7.44-10.42,8.41-4.02.97-8.22.07-12.6-2.7-3.18-2.01-5.45-4.21-6.79-6.59-1.34-2.38-1.93-4.97-1.75-7.76.18-2.79,1.24-5.73,3.2-8.82,1.99-3.14,4.12-5.43,6.4-6.87,2.28-1.44,4.88-2.13,7.81-2.07,2.93.06,5.98,1.09,9.16,3.11Zm-5.48,8.58c-2.75-1.74-5.05-2.46-6.92-2.18-1.86.29-3.36,1.33-4.5,3.13-1.17,1.85-1.49,3.65-.95,5.41.54,1.76,2.33,3.6,5.37,5.52,2.56,1.62,4.77,2.27,6.62,1.96,1.85-.31,3.35-1.37,4.49-3.18,1.1-1.74,1.38-3.51.84-5.32-.54-1.81-2.19-3.59-4.96-5.35Z"/><path class="cls-1" d="m203.96,226.33l19.72,25.47-13.42,10.39c-2.49,1.93-4.55,3.19-6.19,3.79-1.64.6-3.3.65-4.98.14-1.68-.51-3.15-1.57-4.4-3.19-1.09-1.41-1.73-2.87-1.91-4.37-.18-1.5.03-2.99.61-4.46.38-.94,1.06-2,2.05-3.2-1.2.43-2.14.66-2.82.68-.46.02-1.23-.09-2.33-.34-1.09-.25-1.88-.49-2.35-.71l-9.61-4.36,9.1-7.04,10.33,4.45c1.32.59,2.32.86,2.98.83.88-.06,1.7-.37,2.43-.94l.71-.55-8-10.34,8.09-6.26Zm3.64,21.41l-3.4,2.63c-.37.28-.99.95-1.86,2-.45.52-.68,1.12-.69,1.81,0,.69.21,1.31.64,1.87.64.82,1.39,1.25,2.27,1.27.87.03,2.05-.53,3.51-1.67l3.54-2.74-4.01-5.18Z"/><path class="cls-1" d="m190.32,275.42l-29.19,10.31-2.65-7.5,9.79-3.46-8.08-22.87,9.6-3.39,8.08,22.87,9.79-3.46,2.65,7.5Z"/><path class="cls-1" d="m149.05,287.52l-25.16.93-.26-6.92,14.94-.55-.21-5.62-12.76.47-.24-6.5,12.76-.47-.49-13.15,10.22-.38,1.19,32.19Z"/><path class="cls-1" d="m116.02,272.05c-1.55,5.03-4.18,8.5-7.91,10.42-3.73,1.92-8.15,2.09-13.26.51-5.24-1.61-8.86-4.23-10.85-7.86-1.99-3.62-2.22-7.91-.69-12.87,1.11-3.6,2.64-6.36,4.58-8.28,1.95-1.92,4.29-3.16,7.03-3.72s5.85-.3,9.35.77c3.55,1.09,6.32,2.55,8.31,4.38,1.99,1.82,3.33,4.15,4.04,6.99.71,2.84.51,6.06-.6,9.66Zm-9.72-3.04c.96-3.11,1.05-5.52.29-7.24-.76-1.72-2.16-2.9-4.2-3.52-2.09-.64-3.91-.48-5.47.5-1.56.98-2.86,3.19-3.92,6.63-.89,2.9-.95,5.2-.16,6.9.78,1.71,2.2,2.87,4.25,3.5,1.96.6,3.75.41,5.35-.58s2.89-3.06,3.86-6.19Z"/><path class="cls-1" d="m66.61,270.37l-8.2-6.04,14.41-19.54-12.79-9.43,4.71-6.38,20.99,15.48-19.12,25.92Z"/><path class="cls-1" d="m38.4,246.66l-6.55-7.82,24.69-20.69,6.55,7.82-24.69,20.69Z"/><path class="cls-1" d="m38.35,222.21c-4.79,2.16-9.14,2.47-13.04.94s-6.95-4.73-9.15-9.61c-2.25-5-2.68-9.45-1.27-13.33,1.41-3.89,4.47-6.9,9.2-9.03,3.43-1.55,6.51-2.22,9.24-2.03,2.73.19,5.21,1.13,7.44,2.81,2.23,1.68,4.09,4.19,5.59,7.53,1.53,3.39,2.26,6.43,2.21,9.13-.05,2.7-.91,5.25-2.58,7.66-1.66,2.41-4.21,4.39-7.64,5.93Zm-4.14-9.3c2.96-1.34,4.84-2.86,5.63-4.57.79-1.71.75-3.54-.13-5.48-.9-1.99-2.23-3.25-3.99-3.77-1.76-.52-4.29-.04-7.57,1.44-2.76,1.25-4.53,2.73-5.29,4.44s-.7,3.55.18,5.5c.84,1.87,2.17,3.08,3.97,3.63,1.81.55,4.21.15,7.2-1.2Z"/></svg>