<?xml version="1.0" encoding="UTF-8"?><svg id="Layer_1" xmlns="http://www.w3.org/2000/svg" width="1366" height="768" viewBox="0 0 1366 768"><defs><style>.cls-1{fill:none;stroke:#ef3a7c;stroke-width:3px;}</style></defs><g><path class="cls-1" d="m309.42,279.22l48.87,19.47-3.89,9.77-48.87-19.47,3.89-9.77Z"/><path class="cls-1" d="m335.66,236.92c4.02-2.45,8.32-3.61,12.92-3.48,4.6.13,9.15,1.56,13.66,4.3,4.51,2.74,7.85,6.11,10.04,10.11,2.19,4,3.12,8.34,2.79,13.04-.33,4.7-1.92,9.4-4.78,14.1l-9.52,15.66-44.95-27.33,9.52-15.66c2.86-4.71,6.3-8.28,10.32-10.73Zm29.54,20.47c-1.02-4.13-3.86-7.62-8.54-10.47-4.68-2.84-9.12-3.79-13.32-2.83-4.2.96-7.73,3.79-10.59,8.5l-3.86,6.35,29.69,18.05,3.86-6.35c2.86-4.71,3.79-9.13,2.77-13.26Z"/><path class="cls-1" d="m403.6,217.77l-14.74,14.79,4.66,9.52-7.79,7.82-24-50.54,8.64-8.67,50.62,23.84-7.85,7.87-9.54-4.63Zm-7.99-3.94l-20.94-10.17,10.23,20.91,10.71-10.74Z"/><path class="cls-1" d="m445.38,197.5c-3.17.28-6.07-.22-8.69-1.5-2.62-1.27-4.71-3.32-6.27-6.13l9.93-5.33c1.15,1.83,2.63,2.98,4.44,3.43,1.81.46,3.77.12,5.89-1.02,2.16-1.16,3.58-2.59,4.26-4.3.68-1.7.56-3.4-.34-5.08-.74-1.37-1.76-2.28-3.07-2.71-1.31-.43-2.73-.57-4.27-.4-1.53.17-3.56.53-6.1,1.09-3.48.73-6.38,1.16-8.72,1.3-2.34.14-4.65-.3-6.93-1.33-2.28-1.03-4.21-3-5.78-5.92-1.47-2.74-2.07-5.5-1.8-8.27.27-2.77,1.36-5.36,3.25-7.77,1.89-2.41,4.42-4.47,7.6-6.17,4.76-2.56,9.26-3.47,13.49-2.75,4.22.73,7.61,3.09,10.15,7.08l-10.19,5.47c-.94-1.54-2.32-2.5-4.14-2.87-1.81-.36-3.76,0-5.83,1.12-1.81.97-3,2.21-3.59,3.72-.58,1.51-.4,3.15.55,4.92.67,1.24,1.62,2.05,2.88,2.43,1.26.38,2.63.5,4.11.36,1.49-.14,3.51-.47,6.07-.99,3.48-.72,6.4-1.15,8.77-1.28,2.37-.13,4.72.32,7.03,1.36,2.32,1.04,4.25,3,5.79,5.87,1.33,2.48,1.93,5.12,1.79,7.94-.14,2.81-1.11,5.51-2.9,8.1-1.79,2.59-4.39,4.79-7.79,6.62-3.22,1.73-6.42,2.73-9.59,3.01Z"/><path class="cls-1" d="m508.14,119.28l-4.4,55.83-12.3,3.43-32.65-45.51,10.85-3.03,25.12,36.42,2.59-44.14,10.78-3.01Z"/><path class="cls-1" d="m557.58,158.87l-20.87.64-3.14,10.12-11.03.34,17.22-53.24,12.24-.38,20.47,52.07-11.11.34-3.76-9.91Zm-3.11-8.35l-8.26-21.76-6.9,22.23,15.16-.47Z"/><path class="cls-1" d="m588.73,163.59l17.02,2.93-1.42,8.25-27.39-4.72,8.93-51.84,10.36,1.79-7.51,43.59Z"/><path class="cls-1" d="m633.46,138.03l-4.45,12.42,16.62,5.96-2.82,7.87-16.61-5.95-4.7,13.12,18.74,6.71-2.9,8.09-28.63-10.26,17.77-49.59,28.63,10.26-2.9,8.09-18.74-6.71Z"/><path class="cls-1" d="m769.5,441.5c-2.07-1.88-3.49-4.38-4.27-7.49-.78-3.11-.64-6.75.4-10.93l2.13-8.53-19.6-4.89,2.55-10.2,51.04,12.74-4.67,18.73c-.98,3.93-2.5,7.12-4.56,9.54s-4.45,4.04-7.18,4.83c-2.74.79-5.61.81-8.63.05-2.73-.68-5.13-1.96-7.2-3.85Zm4.88-10.05c.95,1.68,2.6,2.82,4.94,3.4,4.97,1.24,8.15-.91,9.53-6.45l2.02-8.09-14.84-3.71-2.02,8.09c-.7,2.82-.58,5.07.37,6.75Z"/><path class="cls-1" d="m737.83,451.98c3.94-2.58,8.29-3.99,13.03-4.23,4.74-.24,9.41.83,14,3.21,4.55,2.36,8.08,5.55,10.61,9.58,2.52,4.02,3.87,8.38,4.02,13.09.16,4.71-.9,9.24-3.16,13.59-2.29,4.4-5.4,7.87-9.33,10.43-3.93,2.55-8.26,3.94-12.99,4.16s-9.37-.85-13.92-3.21c-4.59-2.39-8.16-5.58-10.69-9.58-2.54-4-3.88-8.35-4.04-13.06-.16-4.71.9-9.24,3.16-13.59,2.26-4.35,5.37-7.82,9.31-10.4Zm-2.89,23.13c.16,2.79,1.11,5.4,2.85,7.83,1.74,2.43,4.17,4.45,7.29,6.07,3.12,1.62,6.16,2.44,9.13,2.46,2.96.02,5.62-.72,7.98-2.2,2.36-1.48,4.26-3.62,5.72-6.42,1.46-2.8,2.12-5.6,1.99-8.4-.13-2.8-1.05-5.41-2.77-7.83s-4.14-4.44-7.26-6.06c-3.12-1.62-6.17-2.45-9.16-2.48-2.99-.03-5.67.7-8.07,2.2-2.39,1.49-4.31,3.64-5.77,6.44-1.46,2.8-2.1,5.59-1.94,8.39Z"/><path class="cls-1" d="m695.26,510.36l23.05,4.75,3.26-3.74-15.45-13.47,6.91-7.92,39.65,34.57-12.93,14.83c-2.67,3.06-5.48,5.19-8.43,6.4-2.96,1.21-5.82,1.55-8.59,1.03-2.78-.53-5.3-1.78-7.57-3.76-2.61-2.28-4.31-5.09-5.1-8.43-.79-3.34-.28-6.85,1.53-10.53l-24.32-4.56,8-9.17Zm32.27,6.22l-5.78,6.62c-1.88,2.15-2.75,4.21-2.63,6.17.12,1.96,1.11,3.76,2.96,5.37,1.82,1.58,3.69,2.29,5.61,2.1,1.92-.18,3.83-1.35,5.7-3.5l5.78-6.62-11.64-10.15Z"/><path class="cls-1" d="m686.03,587.13l-5.19-6.75,11.08-8.51-26.87-34.96,8.34-6.41,26.87,34.96,11.08-8.51,5.19,6.75-30.49,23.43Z"/><path class="cls-1" d="m644.33,609.56l-3.88-7.58,19.46-9.96-6.15-12.01-14.91,7.63-3.81-7.45,14.91-7.63-10.13-19.79,9.36-4.79,23.96,46.83-28.82,14.75Z"/><path class="cls-1" d="m606.41,570.68c4.55,1.21,8.51,3.5,11.86,6.86,3.35,3.36,5.67,7.55,6.97,12.56,1.28,4.96,1.27,9.72-.03,14.29s-3.65,8.48-7.05,11.75c-3.4,3.26-7.47,5.51-12.22,6.74-4.8,1.24-9.46,1.25-13.99.04-4.53-1.22-8.46-3.51-11.79-6.88-3.33-3.37-5.63-7.54-6.91-12.5-1.29-5.01-1.3-9.8-.02-14.36,1.28-4.56,3.62-8.47,7.01-11.74,3.4-3.26,7.47-5.51,12.22-6.74,4.75-1.23,9.4-1.24,13.96-.02Zm-19.13,13.31c-1.97,1.99-3.27,4.44-3.92,7.35-.64,2.92-.52,6.08.35,9.48.88,3.4,2.3,6.22,4.27,8.43,1.97,2.22,4.29,3.7,6.97,4.46s5.55.75,8.6-.04c3.05-.79,5.58-2.17,7.58-4.14,2-1.97,3.32-4.4,3.97-7.29.65-2.89.53-6.04-.35-9.44-.88-3.41-2.31-6.23-4.28-8.47-1.98-2.24-4.32-3.75-7.03-4.53-2.71-.78-5.59-.77-8.65.02-3.05.79-5.56,2.18-7.53,4.17Z"/><path class="cls-1" d="m551.07,585.98l-17.26.74-.36-8.36,27.76-1.19,2.25,52.55-10.5.45-1.9-44.2Z"/><path class="cls-1" d="m513.55,629.15l4.35-52.42,10.48.87-4.35,52.42-10.48-.87Z"/><path class="cls-1" d="m498.43,577.04c3.35,3.31,5.64,7.26,6.88,11.85,1.24,4.58,1.17,9.37-.19,14.36-1.35,4.94-3.73,9.07-7.13,12.39-3.4,3.32-7.38,5.54-11.95,6.69-4.57,1.14-9.22,1.07-13.95-.23-4.78-1.31-8.83-3.62-12.16-6.92-3.33-3.31-5.59-7.25-6.81-11.83-1.21-4.58-1.14-9.34.21-14.28,1.37-4.99,3.74-9.15,7.11-12.47,3.38-3.32,7.35-5.56,11.92-6.7,4.57-1.14,9.22-1.07,13.95.23,4.73,1.29,8.77,3.6,12.12,6.91Zm-23.22,2.04c-2.7.75-5.05,2.22-7.06,4.44-2.01,2.21-3.47,5.01-4.4,8.4-.93,3.39-1.09,6.54-.48,9.44.61,2.9,1.88,5.35,3.83,7.34,1.95,1.99,4.44,3.4,7.48,4.24,3.04.83,5.92.89,8.63.18,2.71-.72,5.07-2.17,7.07-4.35s3.47-4.98,4.39-8.37c.93-3.39,1.09-6.55.49-9.48-.6-2.93-1.88-5.4-3.85-7.42-1.96-2.02-4.47-3.45-7.51-4.28-3.04-.83-5.91-.88-8.61-.13Z"/></g><path d="m444.22,302.71c-4.39,1.18-8.52,3.16-12.28,5.83-.32.23-.57.63-.73,1.02-.05.12-.22.71.09.5,3.7-2.63,7.76-4.58,12.09-5.74.32-.09.58-.56.72-.86.03-.07.34-.8.1-.74h0Z"/><path d="m389.31,334.23c-11.65,9.61-22.31,20.59-33.22,31.18-10.98,10.66-22.01,21.29-32.24,32.86-5.54,6.27-10.75,12.91-15.34,20.09-.05.07-.53.93-.22.95,6.85.5,13.32-1.64,19.1-5.2,5.84-3.6,10.76-8.48,15.81-13.22,10.44-9.81,20.18-20.5,29.81-31.28,5.39-6.04,10.76-12.11,16.21-18.08.2-.22.64-.78.59-1.13-.05-.36-.27-.11-.44.07-9.56,10.48-18.86,21.26-28.51,31.64-4.88,5.24-9.85,10.38-14.99,15.32-5.02,4.83-9.95,9.83-15.62,13.74-6.29,4.34-13.44,7.12-21.14,6.56-.07.32-.15.63-.22.95,8.27-12.94,18.64-23.96,29.13-34.58,5.31-5.37,10.71-10.61,16.11-15.85,5.36-5.2,10.67-10.47,16.03-15.68,6.08-5.89,12.26-11.66,18.73-17.01.29-.23.61-.71.68-1.11.06-.33,0-.45-.28-.23h0Z"/><path d="m424.07,311.87c-9.56,5.16-19.03,10.54-27.88,17.01-.32.23-.57.63-.73,1.02-.05.11-.22.72.09.5,8.86-6.47,18.33-11.85,27.88-17.01.33-.17.59-.66.73-1.02.06-.16.24-.67-.09-.5h0Z"/><path d="m469.57,300.74c-11.42-4.53-22.97-.45-33.1,4.57-2.87,1.43-5.7,2.96-8.53,4.48-.33.17-.59.66-.73,1.02-.06.15-.24.66.09.5,9.84-5.27,20.25-11.23,31.71-10.95,3.24.08,6.47.72,9.6,1.96.43.17,1.14-1.5.96-1.57h0Z"/><path d="m337.55,407.69c9.14-5.27,17.74-11.62,25.63-18.91s15.09-15.52,21.43-24.52c3.58-5.08,6.9-10.41,9.92-15.94.09-.15.35-.64.1-.74-.22-.09-.66.73-.72.86-5.22,9.55-11.36,18.43-18.26,26.48-6.92,8.08-14.61,15.34-22.9,21.62-4.67,3.53-9.54,6.75-14.57,9.65-.33.19-.58.66-.73,1.02-.05.14-.23.67.09.49h0Z"/><path d="m350.74,403.83c4.62,2.15,8.77-2.4,11.72-5.45,3.9-4.03,7.73-8.15,11.47-12.36,7.55-8.49,14.75-17.35,21.62-26.54,3.87-5.19,7.64-10.49,11.28-15.88.1-.14.61-.87.46-1.08-.17-.22-.47.21-.57.36-6.28,9.29-12.89,18.28-19.83,26.92-6.95,8.65-14.23,16.98-21.81,24.94-2,2.1-3.96,4.39-6.26,6.1-2.06,1.53-4.57,2.6-7.12,1.41-.41-.18-1.18,1.48-.97,1.58h0Z"/><path d="m361.44,400.83c.29.99,1.08,1.58,1.98,1.68,1.17.14,2.25-.61,3.19-1.22,2.01-1.32,3.88-2.9,5.64-4.61,3.64-3.53,6.9-7.55,10.14-11.52,6.55-8.04,12.73-16.47,18.51-25.24,3.29-4.99,6.46-10.08,9.48-15.28.07-.13.49-.78.29-.94-.19-.15-.62.54-.67.63-5.11,8.77-10.6,17.25-16.46,25.39-5.79,8.05-11.86,15.97-18.49,23.16-1.86,2.03-3.83,3.95-5.99,5.59-1.07.82-2.22,1.73-3.47,2.22-1.11.43-2.69.2-3.13-1.31-.08-.3-.52.29-.57.36-.14.21-.54.75-.45,1.08h0Z"/><path d="m375.38,394.19c-1.31,1.12-1.73,3.26-.22,4.62,1.99,1.78,4.45-.82,5.81-2.11,3.84-3.64,7.67-7.29,11.43-11.04,7.47-7.43,14.67-15.24,20.96-23.96,3.54-4.91,6.77-10.1,9.58-15.6.08-.16.35-.64.1-.74-.22-.09-.66.73-.72.86-4.51,8.84-10.19,16.79-16.43,24.12-6.31,7.41-13.17,14.2-20.12,20.85-1.93,1.85-3.81,3.88-5.87,5.54-.93.75-2.33,1.51-3.5.72-.37-.24-.69-.62-.91-1.04-.11-.2-.19-.43-.24-.65-.02-.1-.02-.23-.05-.33-.11-.36.3-.34-.22.09.28-.24.6-.71.68-1.11.05-.33,0-.46-.28-.23h0Z"/><path d="m394.39,387.79c3.46,2.09,7.48,1.56,10.71-.29,3.65-2.09,6.27-5.88,8.48-9.63,2.64-4.48,5.12-9.1,7.67-13.66,2.64-4.73,5.29-9.45,7.93-14.18,2.97-5.3,5.93-10.6,8.9-15.91.09-.15.35-.64.1-.74-.22-.09-.65.73-.72.86-4.99,8.91-9.97,17.83-14.96,26.74-2.52,4.5-5.03,9-7.56,13.5-2.17,3.88-4.39,7.99-7.84,10.59-3.32,2.49-7.89,3.47-11.75,1.13-.35-.2-1.2,1.43-.96,1.58h0Z"/><path d="m414.68,381.3c3.25.99,6.29-.9,8.28-3.48,2.29-2.98,3.43-6.78,4.74-10.41,2.79-7.72,6.08-15.2,9.79-22.36,2.11-4.07,4.38-8.03,6.77-11.88.08-.12.49-.78.29-.94-.19-.15-.62.54-.67.63-3.98,6.41-7.59,13.12-10.82,20.07-1.62,3.49-3.13,7.05-4.54,10.66-1.37,3.51-2.45,7.23-4,10.64-1.63,3.6-4.91,6.7-8.89,5.49-.46-.14-1.11,1.53-.96,1.57h0Z"/><path d="m424.3,378.46c6.61.41,10.45-6.78,12.56-12.65,1.26-3.51,2.42-7.08,3.74-10.56,1.37-3.59,2.83-7.14,4.37-10.62,1.73-3.91,3.58-7.74,5.54-11.5.08-.16.35-.64.1-.74-.22-.09-.66.73-.72.86-3.26,6.27-6.23,12.75-8.89,19.4-1.3,3.26-2.52,6.56-3.68,9.91-1.08,3.14-2.03,6.43-3.72,9.22-1.88,3.08-4.97,5.31-8.49,5.09-.41-.03-1.07,1.57-.81,1.59h0Z"/><path d="m435.41,372.3c5.31,2.1,9.17-3.99,10.5-8.72.84-2.99,1.28-6.15,1.96-9.19.74-3.35,1.62-6.65,2.61-9.91,1.1-3.61,2.36-7.14,3.76-10.6.09-.22.22-.56-.09-.5-.29.06-.62.76-.73,1.02-2.23,5.51-4.12,11.21-5.61,17.07-.73,2.88-1.36,5.79-1.92,8.72-.52,2.72-.99,5.76-2.5,7.98-1.55,2.29-4.43,3.57-7.03,2.54-.42-.15-1.14,1.52-.96,1.58h0Z"/><path d="m445.6,369.53c1.6.85,3.07,3.27,4.9,1.86,1.8-1.39,2.36-4.25,2.62-6.6.29-2.74.16-5.55.18-8.31.02-3.1.17-6.19.46-9.26.32-3.4.8-6.77,1.44-10.1.08-.42-.36,0-.44.07-.26.29-.51.71-.59,1.13-.97,5.08-1.59,10.28-1.81,15.53-.11,2.5-.09,5-.09,7.51.01,2.54-.03,5.18-.72,7.56-.2.69-.48,1.21-1.18,1.3-.5.06-.96-.13-1.4-.42-.84-.56-1.52-1.38-2.41-1.86-.38-.2-1.19,1.45-.96,1.57h0Z"/><path d="m455.48,366.74c2.09-.42,3.57-2.42,4.38-4.49.92-2.35.82-5.03.7-7.61-.3-6.43-.6-12.86-.89-19.28-.02-.31-.54.32-.57.36-.2.27-.48.69-.46,1.08.25,5.35.49,10.7.74,16.05.11,2.47.38,5.02.17,7.46-.21,2.34-1.02,4.4-3.24,4.85-.32.06-.58.58-.72.86-.04.07-.36.78-.11.73h0Z"/><path d="m458.36,366.93c1.16,1.55,2.97.62,3.88-.52,1.28-1.63,1.85-3.88,2.43-5.95,1.23-4.37,2.01-8.96,2.01-13.64,0-2.69-.29-5.39-.87-8.05-.07-.3-.53.3-.57.36-.16.22-.53.73-.46,1.08,1.13,5.08,1.07,10.27.26,15.25-.41,2.5-1.01,4.94-1.74,7.33-.32,1.03-.58,2.6-1.52,3.12-.8.44-1.84.28-2.45-.55-.14-.18-1.26,1.18-.97,1.57h0Z"/><path d="m462.96,367.4c1.18.2,2.35.4,3.53.61.97.17,2.27.66,3.21.29,1.62-.63,2.16-3.51,2.6-5.14,1.17-4.3,1.7-8.87,1.53-13.46-.09-2.64-.43-5.29-.98-7.89-.06-.3-.53.3-.57.36-.17.23-.53.73-.46,1.08,1.07,5.09,1.29,10.31.62,15.36-.33,2.48-.87,4.92-1.63,7.26-.12.37-.16.74-.5.91-.19.09-.49.04-.69.02-.62-.05-1.26-.2-1.88-.31-1.32-.23-2.63-.45-3.95-.68-.4-.07-1.13,1.54-.84,1.59h0Z"/><path d="m470.63,368.52c1.45.66,2.9,1.31,4.35,1.97.73.33,1.45.66,2.17.98.55.25,1.14.59,1.74.63,1.02.07,1.79-1.23,1.88-2.26.12-1.54-.06-3.21-.14-4.77-.35-6.7-1.3-13.39-2.79-19.97-.07-.3-.53.3-.57.36-.16.22-.54.73-.46,1.08.92,4.06,1.63,8.16,2.12,12.28.24,2.03.43,4.07.57,6.11.07,1.05.13,2.09.17,3.14.02.47.03.94.05,1.41.02.57.14,1.38-.04,1.89.14-.27.28-.54.42-.81.11-.15-.12-.04-.17-.06-.18-.05-.38-.03-.57-.09-.33-.1-.64-.26-.96-.41-.77-.35-1.54-.7-2.31-1.05-1.5-.68-2.99-1.36-4.49-2.03-.41-.18-1.16,1.48-.96,1.58h0Z"/><path d="m480.39,370.89c1.8,2.85,3.69,5.88,6.4,7.73,2.35,1.61,5.24,2.22,7.65.91.26-.14,1-1.08.83-1.47-2.31-5.52-5.57-10.48-8.59-15.55-1.56-2.62-3.07-5.29-4.34-8.1-1.1-2.43-2.73-5.73-2-8.42.09-.35-.03-.39-.27-.21-.29.21-.58.73-.68,1.11-.74,2.74.47,5.61,1.57,8.15,1.2,2.78,2.64,5.44,4.17,8.04,3.16,5.39,6.67,10.58,9.11,16.42.28-.49.56-.98.83-1.47-2.43,1.32-5.44.46-7.72-1.26-2.51-1.89-4.29-4.73-6.01-7.45-.09-.15-1.23,1.13-.96,1.57h0Z"/><path d="m494.47,380.19c2.2,2.51,5.36,3.69,8.31,3.13.3-.06,1.17-1.24.89-1.58-7.08-8.87-12.69-19.16-16.4-30.17-.39-1.15-.72-2.38-1.41-3.4-.71-1.07-1.73-1.49-2.82-1.81-2.43-.72-4.86-1.48-7.26-2.34-4.79-1.71-9.51-3.7-14.13-6-4.62-2.29-9.15-4.86-13.54-7.71-1.03-.66-2.04-1.44-3.16-1.87-1.14-.44-2.26-.34-3.37-.02-2.63.75-5.23,1.67-7.85,2.46-10.56,3.22-21.26,6.02-32.04,8.39-5.15,1.13-10.36,2.05-15.52,3.15-4.17.89-8.49,2.18-11.71,5.29-.79.76-1.5,1.62-2.12,2.55-.1.15-.62.87-.46,1.08.17.22.48-.21.57-.36,2.61-3.9,7-5.54,11.18-6.57,4.9-1.2,9.91-1.97,14.83-3.03,10.66-2.29,21.23-4.98,31.68-8.08,2.58-.76,5.15-1.56,7.71-2.37,1.24-.39,2.47-.9,3.75-1.13,1.25-.23,2.38.1,3.52.77,2.2,1.3,4.33,2.79,6.53,4.1,2.18,1.3,4.39,2.52,6.62,3.69,4.51,2.35,9.11,4.42,13.79,6.2,2.36.9,4.74,1.73,7.13,2.48,2.09.66,4.78.87,6.01,3.23.62,1.2.96,2.57,1.4,3.85.46,1.33.95,2.64,1.47,3.94,1.03,2.58,2.16,5.12,3.39,7.6,2.5,5.05,5.42,9.86,8.7,14.35.81,1.11,1.65,2.2,2.5,3.27.3-.53.59-1.06.89-1.58-2.92.56-6.01-.62-8.17-3.1-.16-.2-1.24,1.24-.95,1.57h0Z"/><path d="m511.6,383.16c-7.74-5.41-14.49-12.64-19.71-21.04-2.7-4.35-4.97-8.99-6.76-13.84-2.07-5.59-3.55-11.38-5.04-17.15-1.47-5.67-3.02-11.29-4.99-16.8-1.92-5.39-4.03-10.71-5.58-16.22-1.52-5.38-2.45-10.93-2.08-16.45.35-5.18,1.61-10.13,2.67-15.11,1.08-5.07,1.8-10.2,1.72-15.51-.09-5.37-.89-10.78-2.4-15.99-.38-1.33-.81-2.63-1.28-3.93-.09-.26-1.19.98-1.03,1.43,3.76,10.39,4.57,21.52,2.6,32.07-.94,5.03-2.3,9.95-2.98,15.06-.71,5.31-.42,10.67.77,16.01,1.24,5.57,3.23,10.94,5.19,16.28,2.01,5.5,3.83,11.01,5.34,16.68,1.53,5.77,2.91,11.58,4.75,17.26,1.62,5.01,3.64,9.85,6.17,14.42,4.82,8.73,11.27,16.39,18.79,22.27.95.74,1.92,1.45,2.89,2.14.32.2,1.23-1.4.97-1.59h0Z"/><path d="m468.4,235c4.89,2.15,10.01.91,15,1.38,2.6.24,5.09,1.08,7.4,2.59,2.2,1.43,4.16,3.33,5.94,5.38,4.11,4.73,7.67,10.16,11.01,15.56,3.55,5.75,6.7,11.74,9.63,17.88,2.3,4.83,5.16,10.55,10.25,12,.47.13,1.1-1.53.96-1.57-4.53-1.28-7.31-6.03-9.46-10.37-1.38-2.8-2.68-5.64-4.12-8.4-1.56-3.02-3.21-5.97-4.94-8.88-3.35-5.6-6.96-11.13-11-16.16-3.42-4.25-7.55-8.19-12.6-9.29-5.68-1.24-11.53.76-17.1-1.7-.42-.17-1.17,1.5-.97,1.58h0Z"/><path d="m521.43,283.68c1.63,8.9,5.13,17.26,7.78,25.87,1.32,4.29,2.43,8.67,2.97,13.13.54,4.52.55,9.05.61,13.57.07,5.27.15,10.54.22,15.8,0,.31.55-.33.57-.36.21-.28.46-.68.46-1.08-.06-4.67-.13-9.34-.19-14.01-.06-4.59-.04-9.18-.47-13.77-.84-8.97-4.01-17.43-6.87-25.91-1.62-4.81-3.13-9.67-4.04-14.67-.06-.31-.53.3-.57.36-.17.24-.52.72-.46,1.08h0Z"/><path d="m523.65,289.14c-3.78-3.93-7.59-7.87-11.88-11.08-2.13-1.6-4.37-3-6.72-4.08-2.36-1.08-4.88-1.63-7.2-2.85-4.54-2.39-6.49-7.59-7.47-12.7-.26-1.33-.45-2.67-.62-4.01-.18-1.37-.26-2.82-.8-4.12s-1.52-2.1-2.61-2.79c-1.2-.75-2.45-1.42-3.69-2.09-5.19-2.81-11.39-6.27-12.9-13.13-.07-.3-.53.3-.57.36-.16.22-.53.73-.46,1.08,1.29,5.87,6.13,9.47,10.68,12.02,1.24.7,2.49,1.35,3.73,2.04,1.18.65,2.45,1.29,3.5,2.2,2.14,1.87,1.98,5.34,2.39,7.99.76,4.91,2.15,10.45,6.07,13.57,2.15,1.71,4.73,2.33,7.16,3.25,2.37.89,4.64,2.13,6.8,3.59,5.01,3.39,9.35,7.88,13.64,12.33.22.2,1.27-1.27.97-1.58h0Z"/><path d="m511.17,265.99c-1.23,3.54-2.58,7.4-5.97,8.85-.33.14-.55.53-.72.86-.03.06-.32.84-.1.74,4.26-1.82,6.2-6.88,7.74-11.34.12-.33-.05-.41-.27-.21-.31.26-.54.7-.68,1.11h0Z"/><path d="m511.35,266.69c-3.14-.15-5.64-3.02-7.23-5.91-1.92-3.48-3.02-7.5-5.68-10.45-4.78-5.29-11.88-5.48-17.77-7.83-3.33-1.33-6.58-3.39-8.5-6.89-.07-.12-1.23,1.09-.96,1.57,3.56,6.5,10.84,7.62,16.71,9.39,3.1.94,6.28,2.17,8.81,4.57,2.89,2.74,4.16,6.71,5.95,10.29,1.65,3.31,4.3,6.68,7.85,6.85.42.03,1.08-1.57.82-1.59h0Z"/><path d="m500.22,255.91c-1.98.72-4.14-.51-5.49-2.31-1.73-2.3-2.11-5.44-2.47-8.25-.04-.31-.53.31-.57.36-.18.25-.5.71-.46,1.08.37,2.86.77,6.03,2.53,8.38,1.37,1.83,3.62,3.07,5.63,2.33.33-.12.56-.54.72-.86.03-.06.33-.82.1-.74h0Z"/><path d="m470.98,301.3c9.25,6.7,20.9,7.45,30.06,1.92,2.65-1.6,5.04-3.69,7.09-6.14.2-.24.64-.77.59-1.13-.05-.36-.28-.12-.44.07-7.05,8.41-18.23,11.4-28.55,7.81-2.74-.95-5.36-2.34-7.8-4.1-.3-.22-1.22,1.37-.96,1.57h0Z"/><path d="m581.04,260.09c-3.57,2.22-6.66,5.19-9.74,8.14-3.2,3.06-6.49,5.96-9.99,8.58-3.44,2.57-7.03,4.91-10.74,6.98-3.43,1.91-7,3.58-10.78,4.58-4.17,1.1-8.57,1.31-12.86-.07-.45-.15-1.11,1.52-.96,1.57,7.71,2.48,15.46-.09,22.21-3.62,7.59-3.97,14.66-9.12,21.04-15.1,3.6-3.37,7.06-6.98,11.2-9.56.32-.2.58-.65.73-1.02.05-.14.23-.69-.09-.49h0Z"/><path d="m578.92,262.78c2.27-2.99,6.3-3.71,9.75-3.36,3.9.4,7.67,2.05,11.45,3.31,7.88,2.64,15.91,4.22,23.96,5.56,8.12,1.35,16.22,2.64,24.29,4.56,7.68,1.83,15.3,4.05,22.83,6.69,8.56,2.99,17,6.51,25.28,10.52.4.19,1.17-1.47.96-1.57-14.98-7.25-30.5-12.88-46.28-16.77-8.07-1.99-16.18-3.38-24.31-4.71-8.38-1.37-16.75-2.9-24.96-5.59-4.25-1.39-8.51-3.33-12.91-3.65-3.9-.28-7.68,1.01-10.17,4.29-.1.14-.61.88-.46,1.08.17.23.47-.22.57-.36h0Z"/><path d="m695.44,288.89c12.69,4.72,25.37,9.43,38.06,14.15,6.2,2.31,12.4,4.67,18.66,6.75,6.02,2,12.1,3.71,18.23,5.11,6.81,1.55,13.65,2.71,20.51,3.49.21-.48.41-.98.62-1.46-3.31,3.08-7.35,5.15-11.7,5.84-4.5.72-9.04-.31-13.5-1.53-9.7-2.64-19.4-5.34-29.1-8.01-9.58-2.64-19.18-5.27-28.74-8.05-9.06-2.63-18.11-5.41-27.06-8.58-8.94-3.16-17.81-6.7-26.48-10.84-1.11-.53-2.21-1.06-3.31-1.61-.39-.2-1.18,1.46-.96,1.57,8.71,4.33,17.62,8.04,26.63,11.31,9.07,3.3,18.23,6.18,27.42,8.89,9.58,2.82,19.2,5.46,28.82,8.12,9.87,2.72,19.75,5.44,29.63,8.16,4.41,1.22,8.92,2.58,13.43,2.4,4.32-.17,8.49-1.73,12.01-4.28.87-.63,1.71-1.32,2.51-2.07.13-.11,1.01-1.42.62-1.46-12.29-1.4-24.54-4.04-36.55-7.89-6.25-2-12.43-4.34-18.61-6.64-6.3-2.34-12.59-4.68-18.89-7.03-7.09-2.64-14.19-5.28-21.29-7.92-.44-.16-1.13,1.51-.96,1.57h0Z"/><path d="m757.25,321.32c.54,1,1.08,2.01,1.62,3.02.15.29.3.67.47.93.03.08.05.16.07.23.36-.39.43-.52.2-.38-.17.01-.42.21-.58.28-.38.17-.76.34-1.14.49-1.83.74-3.74,1.27-5.69,1.6-3.99.67-8.09.41-12.12-.58-3.8-.93-7.51-2.39-11.17-3.95-3.9-1.66-7.77-3.43-11.62-5.23-7.62-3.57-15.19-7.3-22.89-10.66-7.39-3.23-14.89-5.85-22.44-8.47-8.06-2.8-16.13-5.9-23.42-10.99-.31-.22-1.23,1.38-.96,1.57,6.81,4.75,14.32,7.78,21.84,10.43,7.79,2.75,15.58,5.36,23.24,8.68,8.04,3.49,15.95,7.39,23.92,11.12,4.01,1.88,8.05,3.71,12.11,5.43,3.83,1.61,7.72,3.09,11.71,3.92,4.57.95,9.19.93,13.59-.27,1.13-.3,2.23-.68,3.31-1.13.85-.35,1.83-.65,2.45-1.42.56-.71.9-1.49.47-2.43-.59-1.3-1.36-2.54-2.03-3.79-.05-.1-1.21,1.09-.95,1.57h0Z"/><path d="m731.72,324.48c.51.83,1.01,1.66,1.51,2.49.23-.48.46-.97.68-1.45-4.92,4.52-12.05,2.31-17.7-.1-6.59-2.82-13.14-5.77-19.7-8.65-6.64-2.91-13.27-5.83-19.91-8.74-6.27-2.75-12.48-5.57-18.47-9.1-6.45-3.8-12.76-8-19.54-10.95-.41-.18-1.16,1.49-.96,1.57,6.11,2.66,11.84,6.33,17.63,9.81,6.06,3.64,12.26,6.67,18.63,9.47,13.42,5.9,26.83,11.81,40.26,17.68,6.26,2.74,13.87,5.4,19.36.34.23-.21.92-1.06.68-1.45-.51-.83-1.01-1.66-1.51-2.49-.08-.13-1.23,1.12-.95,1.58h0Z"/><path d="m699.78,320.51c.88,1.39,1.76,2.79,2.63,4.18.3-.53.59-1.06.89-1.58-3.92,1.74-8.27.59-12.21-1.21-4.41-2.01-8.64-4.67-12.88-7.12-8.89-5.13-17.72-10.41-26.48-15.83-4.98-3.08-9.94-6.2-14.87-9.37-.34-.21-1.22,1.41-.96,1.57,8.77,5.63,17.62,11.12,26.52,16.47,4.45,2.67,8.92,5.31,13.41,7.91,4.3,2.5,8.6,5.13,13.02,7.33,4.32,2.15,9.24,3.8,13.64,1.85.3-.13,1.16-1.15.89-1.58-.88-1.39-1.76-2.79-2.63-4.18-.1-.14-1.24,1.13-.96,1.57h0Z"/><path d="m693.02,326.09c-.88,1.49-3.3,1.16-4.63.56-1.68-.76-3.1-2.14-4.52-3.38-3.08-2.68-6.22-5.27-9.42-7.75-6.44-5-13.12-9.59-19.98-13.75-3.85-2.33-7.75-4.52-11.71-6.57-.38-.2-1.18,1.45-.96,1.57,14.87,7.72,28.94,17.42,41.95,28.8,1.57,1.37,3.28,2.86,5.28,3.12,1.85.25,3.4-.64,4.39-2.3.07-.13.49-.78.29-.94-.2-.16-.63.53-.68.63h0Z"/><path d="m680.61,324.01c.37,1.31.75,2.61,1.12,3.92.28-.49.56-.98.83-1.47-1.92,1.31-4.37.09-6.32-.91-1.87-.97-3.74-1.94-5.6-2.93-3.78-2.01-7.55-4.07-11.25-6.27-7.3-4.35-14.43-9.28-20.74-15.4-3.52-3.41-6.75-7.2-9.57-11.34-.11-.16-1.25,1.15-.96,1.57,5.1,7.5,11.53,13.7,18.48,18.91,7.08,5.3,14.66,9.63,22.31,13.69,2.12,1.13,4.24,2.23,6.37,3.34,2.09,1.08,4.59,2.26,6.64.86.29-.2.97-1.01.83-1.47-.37-1.31-.75-2.61-1.12-3.92-.08-.3-.52.29-.57.36-.15.2-.55.74-.46,1.06h0Z"/><path d="m664.66,323.77c.59.94,2.92,4.98.64,5-.73,0-1.37-.6-1.92-1.11-.85-.79-1.69-1.58-2.54-2.37-3.15-2.94-6.31-5.89-9.46-8.84-6.11-5.71-12.25-11.37-18.27-17.21-3.38-3.29-6.72-6.63-9.97-10.08-.2-.21-1.26,1.25-.96,1.57,6.43,6.83,13.2,13.25,19.99,19.6,3.44,3.21,6.88,6.42,10.31,9.63,1.77,1.65,3.54,3.31,5.31,4.96,1.71,1.59,3.37,3.37,5.17,4.8,1.66,1.32,3.03.17,3.82-1.48,1.03-2.14.03-4.14-1.17-6.05-.09-.15-1.23,1.13-.96,1.57h0Z"/><path d="m657.26,322.47c.36,1.14.71,2.28,1.07,3.42.18.55.38,1.11.51,1.67.03.15.03.42.09.55,0,.27.1.18.28-.27-.2.05-.39.03-.59-.04-.87-.24-1.72-1.01-2.48-1.53-.91-.62-1.81-1.26-2.7-1.92-3.37-2.47-6.64-5.12-9.82-7.92-6.38-5.6-12.39-11.73-18.24-18.03-3.32-3.57-6.58-7.19-9.85-10.82-.19-.2-1.26,1.24-.96,1.57,12.44,13.8,25.04,27.79,39.92,38.21.93.65,1.91,1.5,2.93,1.92,1.01.42,1.68-.15,2.17-1.07.51-.94.37-1.78.04-2.82-.45-1.45-.91-2.9-1.37-4.35-.07-.23-1.17.96-1.02,1.44h0Z"/><path d="m648.4,322.97c-.19.88.05,1.69.34,2.55.13.38.27.75.36,1.13.04.21.08.42.09.64,0,.1,0,.2,0,.31-.07.31.01.29.23-.06.03.32-1.1,0-1.27-.09-.41-.19-.79-.45-1.18-.7-.85-.53-1.7-1.06-2.55-1.6-3.16-2.01-6.28-4.13-9.2-6.59-3-2.53-5.69-5.46-7.94-8.84-2.41-3.63-4.41-7.56-6.88-11.14-2.68-3.9-5.73-7.48-9.07-10.69-.22-.21-1.25,1.29-.96,1.57,3.2,3.07,6.14,6.49,8.74,10.21,2.69,3.85,4.83,8.11,7.46,12,4.91,7.27,11.93,11.96,18.88,16.31.77.49,1.75,1.32,2.66,1.28.81-.03,1.38-.84,1.73-1.56.36-.76.47-1.6.28-2.48-.25-1.17-.96-2.24-.71-3.45.09-.42-.37,0-.44.07-.26.29-.49.7-.58,1.12h0Z"/><path d="m636.81,322.79c.15.25.11.27.2.47.2.47-.13.17.13.03-.28.15-.5.23-.82.19-.65-.05-1.27-.48-1.8-.92-1.2-.99-2.32-2.11-3.47-3.17-2.45-2.25-4.91-4.49-7.34-6.76-2.33-2.17-4.61-4.42-6.62-6.97-1.93-2.46-3.61-5.15-5.15-7.92-1.79-3.24-3.38-6.6-4.97-9.96-.14-.3-1.22,1.02-1.03,1.43,3.08,6.53,6.22,13.18,10.73,18.7,2.38,2.92,5.12,5.42,7.83,7.91,2.81,2.59,5.62,5.19,8.44,7.76,1.06.96,2.47,2.09,3.7,1.09.82-.67,1.88-2.27,1.12-3.46-.1-.14-1.25,1.14-.97,1.57h0Z"/><path d="m627.34,320.41c.08.52.16,1.06.12,1.59,0,.09-.02.4-.06.44.08-.07-.12-.14-.15-.14-.3.06-.59.03-.9-.08-1.11-.41-1.97-1.51-2.78-2.4-2.02-2.19-4.03-4.38-6.06-6.58-3.76-4.09-7.75-8.07-10.98-12.71-1.81-2.6-3.32-5.43-4.27-8.53-.08-.24-1.17.95-1.03,1.43,1.89,6.18,5.95,11.14,10.07,15.68,2.26,2.49,4.55,4.95,6.83,7.42,1.17,1.27,2.34,2.54,3.51,3.81,1,1.09,2,2.46,3.25,3.2,1.22.73,2.23.26,2.94-.89.68-1.1.75-2.33.53-3.67-.05-.31-.53.3-.57.36-.18.23-.53.71-.47,1.07h0Z"/><path d="m621.11,321.25c.2.54.25.98-.23,1.23-.57.29-1.28.22-1.9.04-1.13-.32-2.19-1.07-3.19-1.74-1.99-1.34-3.87-2.93-5.62-4.66-3.54-3.52-6.53-7.68-9.13-12.07-1.53-2.57-2.92-5.23-4.23-7.94-.15-.3-1.22,1.03-1.03,1.43,2.59,5.35,5.51,10.56,9.1,15.2,1.77,2.29,3.7,4.44,5.81,6.35,1.07.96,2.17,1.86,3.33,2.69,1.15.82,2.37,1.71,3.66,2.2,1.24.48,2.44.37,3.36-.62.78-.83,1.59-2.24,1.11-3.54-.1-.27-1.2.97-1.03,1.43h0Z"/><path d="m615.44,322.27c-.03,1.09-.56,1.6-1.43,1.96-.89.38-1.89.36-2.84.12-1.99-.51-3.84-1.9-5.5-3.23-3.43-2.74-6.43-6.19-8.79-10.09-1.39-2.3-2.54-4.74-3.46-7.29-.09-.26-1.19.98-1.03,1.43,1.82,5.05,4.58,9.7,8.09,13.55,1.75,1.93,3.69,3.66,5.76,5.12,1.88,1.33,4.2,2.72,6.4,2.17,1.95-.49,3.77-2.62,3.83-4.94,0-.4-.32-.05-.44.07-.22.25-.58.74-.59,1.13h0Z"/><path d="m609.9,325.3c.26.91.25,1.96-.39,2.61-.7.71-1.65,1.02-2.61,1.03-2.18.02-4.26-1.36-6.03-2.79-3.67-2.97-6.66-7.05-8.55-11.62-1.05-2.53-2.22-5.74-1.83-8.47.06-.41-.35-.02-.44.07-.25.28-.53.71-.59,1.13-.39,2.77.68,5.88,1.73,8.45,1.08,2.67,2.52,5.18,4.25,7.41,1.72,2.22,3.76,4.23,6.01,5.75,1.98,1.33,4.49,2.31,6.59,1.18,1.84-1,3.59-3.7,2.89-6.16-.08-.3-.52.29-.57.36-.16.2-.55.74-.46,1.06h0Z"/><path d="m603.97,331.13c-.13,1.21-1.54,1.46-2.48,1.43-1.17-.05-2.33-.57-3.37-1.2-1.89-1.13-3.53-2.77-4.88-4.64-3.25-4.48-4.69-10.05-6.08-15.4-.08-.3-.52.29-.57.36-.16.21-.55.74-.46,1.08,1.28,4.95,2.61,10.05,5.34,14.36,1.18,1.85,2.6,3.54,4.27,4.85,1.58,1.24,3.59,2.38,5.51,2.17,1.88-.2,3.51-2.12,3.73-4.2.04-.41-.34-.03-.44.07-.23.27-.54.71-.58,1.12h0Z"/><path d="m600.1,333.7c-2.16,1.3-4.93.64-7.03-.87-2.3-1.65-3.94-4.2-5.44-6.69-.08-.14-1.23,1.12-.96,1.57,1.55,2.59,3.28,5.27,5.72,6.89,2.18,1.45,4.91,1.92,7.07.61.33-.2.58-.65.73-1.02.06-.15.24-.69-.08-.5h0Z"/><path d="m597.86,337.05c.19,1.18.74,3.53-.8,3.61-1.21.06-2.51-1.29-3.44-2.08-2.17-1.83-4.21-3.89-6.2-5.97-1.97-2.06-3.81-4.36-4.64-7.25-.89-3.08-.72-6.32-.54-9.44.03-.4-.33-.04-.44.07-.23.26-.57.73-.59,1.13-.16,2.84-.33,5.77.27,8.62.57,2.7,1.93,4.99,3.65,7,1.73,2.01,3.66,3.87,5.56,5.67,1.02.96,2.07,1.88,3.17,2.73.85.65,1.85,1.4,2.86.99.98-.39,1.68-1.52,2.06-2.55.46-1.26.29-2.62.07-3.97-.05-.31-.53.3-.57.36-.18.23-.52.7-.46,1.06h0Z"/><path d="m595.44,341.28c-.65,1.11-1.46,2.29-2.82,2.15-1.18-.13-2.31-1.17-3.26-1.91-2.02-1.58-3.95-3.35-5.61-5.4-3.36-4.17-5.57-9.84-4.46-15.24.09-.42-.36,0-.44.07-.27.3-.5.71-.59,1.13-.93,4.48.36,9.29,2.77,13.17,1.27,2.03,2.82,3.82,4.5,5.41.88.83,1.8,1.61,2.74,2.36.84.66,1.72,1.42,2.68,1.81,2.26.91,3.81-1.44,4.85-3.23.07-.13.49-.78.29-.94-.19-.18-.62.52-.67.61h0Z"/><path d="m591.24,344.72c-7.02-2.57-12.89-9.05-15.26-16.91-.07-.23-1.17.95-1.03,1.43,2.39,7.91,8.25,14.46,15.33,17.05.44.16,1.13-1.51.96-1.57h0Z"/><path d="m591.74,344.66c-.66,1.07-1.53,1.91-2.55,2.54-1.14.7-2.07.7-3.27-.04-1.82-1.13-3.53-2.58-5.08-4.16-3.22-3.3-5.75-7.39-7.35-11.88-.09-.26-1.19.97-1.03,1.43,1.76,4.96,4.64,9.44,8.33,12.91.93.87,1.91,1.69,2.92,2.42.91.65,1.97,1.51,3.06,1.5,1.1-.02,2.18-.87,2.98-1.58.92-.8,1.69-1.77,2.35-2.84.08-.12.49-.78.29-.94-.19-.15-.61.54-.66.63h0Z"/><path d="m586.52,350.06c-1.28,1.52-3.7,1.13-5.25.07-1.81-1.24-3.01-3.35-3.98-5.4-2.26-4.81-3.56-10.09-3.84-15.39-.02-.31-.54.32-.57.36-.2.27-.48.69-.46,1.08.31,5.67,1.77,11.39,4.36,16.44,1.06,2.08,2.52,4.24,4.61,5.06,1.83.72,3.7.35,4.98-1.16.2-.23.64-.77.59-1.13-.05-.36-.27-.11-.44.07h0Z"/><path d="m583.85,351.26c-.86,1.22-1.84,2.33-2.95,3.26-.58.49-1.1.8-1.87.57-.55-.17-1.08-.5-1.56-.87-1.9-1.47-2.98-3.93-3.81-6.23-2.21-6.12-3.74-12.54-4.73-18.96-.05-.31-.53.31-.57.36-.17.24-.51.71-.46,1.08.85,5.56,2.14,11.05,3.87,16.4.69,2.15,1.41,4.35,2.55,6.29.93,1.58,2.49,3.45,4.26,3.61,1.12.09,2.13-1.08,2.88-1.82.92-.9,1.75-1.91,2.5-2.98.1-.14.61-.87.46-1.08-.17-.22-.47.22-.57.36h0Z"/><path d="m578.51,356.56c-.06,2.63-1.09,4.98-3.01,6.39-1.13.82-2.39,1.34-3.72.48-1.07-.7-1.96-1.8-2.67-2.93-1.54-2.47-2.45-5.45-3.2-8.28-.79-2.95-1.31-5.98-1.56-9.01-.3-3.53-.22-7.06.22-10.53.05-.41-.35-.02-.44.07-.25.28-.54.71-.59,1.13-.87,6.89-.33,14.09,1.65,20.91.89,3.09,2,6.46,4.12,8.85.97,1.1,2.22,2.12,3.61,1.79,1.2-.28,2.31-1.17,3.18-2.07,2.02-2.09,3.36-5.05,3.43-8.24,0-.3-.55.33-.57.36-.22.3-.45.68-.46,1.08h0Z"/><path d="m571.11,363.35c-.71,1.09-1.19,2.66-2.48,3.02-1.1.31-2-.5-2.57-1.53-.66-1.2-.98-2.63-1.37-3.93-.44-1.49-.85-3-1.24-4.51-1.58-6.2-2.7-12.5-3.37-18.84-.03-.31-.54.31-.57.36-.19.25-.5.7-.46,1.08.58,5.54,1.51,11.05,2.79,16.49.63,2.67,1.34,5.31,2.14,7.94.49,1.61,1.1,4.16,2.87,4.56,2.34.54,3.58-2.69,4.64-4.32.08-.12.48-.78.29-.94-.19-.17-.61.53-.67.62h0Z"/><path d="m566.9,366.33c-.84,1.2-1.76,2.33-2.76,3.35-.49.5-.99.97-1.51,1.43-.25.22-.58.6-.87.72-.48.19-.72-.18-.93-.61-1.24-2.58-2.1-5.48-2.76-8.28-1.33-5.64-1.67-11.5-.98-17.14.39-3.22,1.13-6.35,2.19-9.33.13-.35-.05-.38-.27-.21-.31.23-.54.73-.68,1.11-2.01,5.62-2.86,11.78-2.56,17.98.15,3.16.61,6.33,1.37,9.42.37,1.53.82,3.03,1.34,4.51.25.72.52,1.43.81,2.14.22.55.46,1.46.9,1.87.58.55,1.22-.15,1.66-.52.66-.56,1.3-1.15,1.9-1.77,1.19-1.22,2.29-2.54,3.28-3.97.1-.14.61-.87.46-1.08-.16-.22-.46.22-.56.37h0Z"/><path d="m561.07,372.74c-.21,1.71-.34,4.06-1.55,5.23-1.15,1.11-2.9,1.34-4.22.21-1.19-1.02-1.76-2.7-2.12-4.25-.49-2.1-.72-4.25-.88-6.39-.34-4.46-.64-8.9-1.16-13.34-.51-4.35-1.15-8.7-1.92-13.02-.43-2.43-.91-4.84-1.42-7.25-.48-2.26-1.01-4.53-2.2-6.51-.08-.14-1.23,1.12-.96,1.57,1.22,2.03,1.71,4.38,2.21,6.68.51,2.41.98,4.83,1.41,7.25.84,4.75,1.52,9.51,2.04,14.3.52,4.75.67,9.52,1.22,14.26.34,3,1.08,8.93,4.79,9.05,1.72.06,3.14-1.31,4.04-2.77,1.12-1.84,1.49-4.02,1.76-6.23.05-.41-.35-.02-.44.07-.24.28-.53.73-.59,1.14h0Z"/><path d="m549.65,343.36c4.26-2.74,8.52-5.48,12.78-8.23,4.08-2.63,8.29-5.11,12.13-8.16,3.75-2.97,6.78-6.68,9.64-10.65,2.99-4.16,5.99-8.3,9.07-12.36,3.12-4.11,6.29-8.17,9.52-12.17.8-.98,1.59-1.96,2.4-2.94.72-.88,1.5-2.33,2.74-2.19,1.11.12,2.31.9,3.36,1.33s2.11.84,3.17,1.21c8.37,2.93,17.37,4.07,25.69,1.78,7.57-2.09,14.42-6.96,18.74-14.15.54-.89,1.03-1.81,1.48-2.76.08-.16.36-.63.1-.74-.21-.09-.66.73-.72.86-3.66,7.67-10.55,12.72-18.01,14.97-8.23,2.49-17.2,1.53-25.58-1.28-2.14-.72-4.21-1.61-6.3-2.49-.89-.37-1.72-.49-2.5.11-.85.65-1.52,1.67-2.21,2.51-3.17,3.85-6.28,7.77-9.34,11.73-3.1,4.02-6.15,8.1-9.14,12.23-2.87,3.97-5.6,8.14-9.12,11.44s-7.61,5.76-11.58,8.32c-4.18,2.69-8.36,5.38-12.54,8.07-1.05.68-2.11,1.36-3.17,2.04-.32.21-.58.64-.73,1.02-.04.13-.22.69.1.49h0Z"/><path d="m504.54,380.96c3.92,3.19,7.87,6.56,10.92,10.84,1.49,2.09,2.73,4.4,3.48,6.91.8,2.7.9,5.44.7,8.18-.2,2.85-.5,5.67-.57,8.54-.07,2.75-.01,5.51.14,8.28.32,5.68,1.03,11.34,1.87,16.99.83,5.68,1.79,11.35,2.59,17.03.83,5.95,1.43,11.89,1.8,17.86.38,6.12.58,12.24.75,18.35.17,6.09.4,12.19.06,18.23-.63,11.19-3.35,21.92-6.74,32.22-.41,1.26-.83,2.51-1.27,3.75-.01.04-.11.42.06.35,3.83-1.56,6.36-5.35,8.17-9.28,1.92-4.15,3.22-8.74,4.15-13.34,1.92-9.46,2.09-19.39,1.7-29.21-.42-10.96-1.38-21.93-2.15-32.89-.85-11.98-1.69-23.97-2.54-35.96-.42-5.95-.82-11.9-1.26-17.84-.38-5.08-1.11-10.63-4.53-14.58-.74-.86-1.59-1.57-2.52-2.14-.35-.21-1.21,1.42-.96,1.57,4.08,2.48,5.88,7.56,6.56,12.33.39,2.76.52,5.54.72,8.31.2,2.9.41,5.8.61,8.7.81,11.44,1.61,22.88,2.42,34.32.77,10.96,1.63,21.92,2.29,32.88.58,9.58.85,19.22-.24,28.64-.54,4.67-1.43,9.27-2.79,13.67-1.3,4.21-2.93,8.8-6.12,11.57-.81.7-1.71,1.26-2.69,1.66.02.12.04.23.06.35,3.53-10.22,6.57-20.79,7.72-31.86.61-5.82.59-11.73.45-17.64-.15-6.15-.32-12.3-.62-18.46-.3-6.18-.74-12.37-1.49-18.53-.7-5.74-1.63-11.46-2.52-17.18-1.77-11.45-3.37-23.09-2.39-34.54.23-2.7.57-5.43.3-8.18-.25-2.53-1.03-4.98-2.18-7.24-2.4-4.74-6.21-8.47-10.03-11.76-.98-.85-1.97-1.67-2.97-2.49-.28-.23-1.25,1.33-.97,1.56h0Z"/><path d="m532.01,518.79c.49,3.48.99,6.96,1.49,10.44.04.29.48-.24.5-.28.23-.29.44-.66.52-1.05,1.6-8.24,2.88-16.67,2.5-25.27-.2-4.49-.92-8.95-1.4-13.43-.49-4.55-.48-9.01-.23-13.53.25-4.38.5-8.74.39-13.16-.11-4.55-.46-9.1-.78-13.65-.66-9.37-1.34-18.74-2.24-28.11-.25-2.58-.52-5.17-.81-7.75-.25-2.21-.41-4.71-1.78-6.56-1-1.35-2.64-2.17-4.03-1.33-1.17.7-2.28,2.44-1.98,4.03.06.31.53-.3.57-.36.17-.24.52-.72.46-1.08-.16-.87.15-1.15.89-1.31.76-.17,1.55.14,2.2.64,1.46,1.13,2.06,3.05,2.34,4.89.68,4.35.99,8.79,1.4,13.16.8,8.72,1.43,17.45,2.04,26.17.3,4.28.61,8.56.71,12.84.1,4.29-.15,8.52-.38,12.77-.24,4.16-.31,8.3.1,12.5.41,4.24,1.1,8.46,1.41,12.71.68,9.2-.68,18.22-2.38,27.02.34-.44.68-.88,1.02-1.31-.49-3.48-.99-6.96-1.49-10.44-.05-.31-.53.31-.57.36-.17.26-.5.72-.45,1.08h0Z"/><path d="m535.02,493.81c1.56,6.36,3.28,12.69,5.15,18.97.07.24.39-.12.43-.19,3.59-4.6,4.87-10.63,5.13-16.8.3-7.22-.56-14.5-1.54-21.71-2.03-15-4.81-29.93-6.01-44.99-.17-2.11-.31-4.22-.4-6.33-.09-1.98-.04-4.05-.62-6-.45-1.51-1.29-2.82-2.62-3.49-1.18-.6-2.39-.52-3.35.35-.28.25-.6.71-.68,1.11-.06.31,0,.46.27.21.9-.82,2.25-.51,3.25.15,1.18.79,1.87,2.09,2.22,3.52.4,1.62.41,3.29.48,4.93.08,1.8.18,3.59.31,5.38.51,7.07,1.39,14.13,2.39,21.17,1,7.05,2.13,14.09,3.15,21.14.99,6.85,1.97,13.75,2.16,20.64.1,3.61,0,7.24-.57,10.75-.53,3.21-1.5,6.44-3.4,8.89.14-.07.29-.12.43-.19-1.87-6.28-3.59-12.61-5.15-18.97-.07-.3-.52.29-.57.36-.16.23-.54.75-.46,1.08h0Z"/><path d="m547.18,486.22c1.77-3.38,1.78-7.3,1.17-11.22-.32-2.04-.76-4.05-1.17-6.08-.49-2.45-.85-4.92-1.11-7.39-1.05-10.07-.56-20.24-2.65-30.24-.48-2.29-.94-5.22-2.5-7.01-1.39-1.61-3.45-1.49-4.55.17-.1.15-.62.87-.46,1.08.17.22.48-.21.57-.36.46-.68,1.65-.5,2.28-.21.82.36,1.44,1.11,1.89,1.95,1.02,1.91,1.43,4.31,1.85,6.43.9,4.53,1.29,9.13,1.54,13.71.27,4.72.4,9.43.81,14.14.38,4.29,1.17,8.47,2,12.7.8,4.06,1.59,8.83-.31,12.47-.08.16-.35.64-.1.74.22.09.66-.73.72-.86h0Z"/><path d="m548.67,482.68c1.46-.05,2.52-1.28,3.22-2.58.79-1.47.94-3.16.99-4.89.11-3.97.03-7.96-.21-11.95-.5-8.21-1.72-16.43-3.65-24.48-.27-1.12-.55-2.24-.85-3.35-.23-.89-.47-1.79-.91-2.6-.8-1.46-2.41-2.2-3.58-1.06-.28.26-.6.69-.68,1.11-.06.3,0,.48.27.21.99-.96,2.47.25,3.03,1.31.78,1.45,1.07,3.3,1.47,4.9.85,3.46,1.58,6.95,2.17,10.45,1.19,7.07,1.85,14.21,1.95,21.33.03,2,.03,4.01-.05,6-.04.88-.1,1.78-.35,2.6-.29.95-1.12,1.37-1.99,1.4-.44.01-1.05,1.6-.83,1.6h0Z"/><path d="m554.07,476.12c.53,1.29,1.28,2.91,2.71,2.96,1.45.05,2.55-1.58,3.16-2.83,1.49-3.05,1.02-6.74.37-10.13-.85-4.46-1.75-8.92-2.63-13.37-.89-4.54-1.7-9.1-2.69-13.62-.41-1.87-1.17-3.97-2.9-4.78-1.82-.84-3.29.65-4.43,1.93-.2.22-.64.78-.59,1.13.05.36.27.11.44-.07,1.08-1.21,2.4-2.22,3.99-1.22,1.3.81,1.95,2.35,2.34,3.86.93,3.71,1.52,7.54,2.25,11.29.75,3.83,1.51,7.65,2.26,11.48.64,3.26,1.55,6.63,1.57,9.95.01,1.59-.12,4.17-1.7,4.7-1.57.52-2.54-1.34-3.1-2.71-.13-.29-1.22.99-1.04,1.43h0Z"/><path d="m561.59,474.67c-.35,1.11.57,2.2,1.61,1.94,1.11-.28,1.86-1.84,2.19-2.95.91-3.1.31-6.72-.17-9.95-.33.5-.66,1-.99,1.5,1.75,1.73,4.07,2.47,6.27,2.03.4-.08.98-1.06.93-1.51-.79-6.65-2.9-13.04-5.41-19.21-.63-1.54-1.28-3.07-1.94-4.6-.61-1.42-1.19-2.91-1.9-4.29-.6-1.16-1.54-1.33-2.59-1.1-1.37.29-2.72.77-4.05,1.21-.33.11-.57.55-.72.86-.03.06-.34.81-.1.74,1.27-.42,2.55-.84,3.85-1.16.56-.14,1.19-.27,1.76,0,.54.26.8.79,1.05,1.35,1.37,2.96,2.64,5.99,3.86,9.02,2.4,5.99,4.41,12.19,5.17,18.62.31-.5.62-1.01.93-1.51-2.16.43-4.41-.31-6.13-2-.28-.28-1.04,1.22-.99,1.5.33,2.21.67,4.45.59,6.68-.01.52-.06,1.03-.12,1.53-.05.4-.07,1.13-.29,1.43-.48.66-2.13-.06-1.84-1,.11-.35-.04-.38-.27-.21-.3.21-.56.72-.68,1.1h0Z"/><path d="m572.37,464.32c1.77,1.42,3.61,2.69,5.53,3.8.36.21,1.05-1.18.99-1.5-.98-6.27-4.29-11.72-7.16-17.2-1.49-2.84-2.91-5.76-3.84-8.87-.45-1.51-.67-3.03-1.03-4.56-.32-1.36-.91-2.73-2.14-3.31-1.22-.58-2.21.1-2.87,1.17-.71,1.15-.81,2.45-.72,3.86.02.31.54-.32.57-.36.19-.26.48-.69.46-1.08-.04-.54-.07-1.1,0-1.63.02-.13.03-.33.08-.46-.02.07-.25.2-.01.06.28-.17.59-.22.92-.18,1.2.16,2.05,1.34,2.45,2.54.44,1.31.55,2.71.89,4.05.33,1.35.77,2.66,1.27,3.96,2,5.12,4.98,9.69,7.28,14.65,1.29,2.8,2.34,5.73,2.82,8.79.33-.5.66-1,.99-1.5-1.92-1.11-3.77-2.38-5.53-3.8-.26-.23-1.22,1.35-.95,1.57h0Z"/><path d="m579.59,461.87c2.52,1.84,5.27,3.17,8.15,3.95.35.09,1.22-1.24.96-1.57-4.39-5.63-8.77-11.26-13.16-16.89-2.16-2.78-4.37-5.52-6.48-8.35-1.99-2.67-3.88-5.56-4.91-8.83-.43-1.35-1.04-3.34-.59-4.7.11-.32.07-.04.07-.04.11-.02.21-.05.33-.05.31,0,.6.18.85.39.58.48,1.05,1.18,1.54,1.77,2.26,2.72,4.52,5.44,6.78,8.15,4.55,5.48,9.11,10.95,13.66,16.43,1.26,1.52,2.53,3.05,3.8,4.57.65.78,1.3,1.56,1.95,2.35.57.68,1.25,1.35,1.73,2.11.11.18.17.41.28.57.02.33.09.3.23-.09.28-.35.25-.4-.08-.18-.37.17-.76.31-1.15.45-.82.29-1.65.54-2.49.73-1.69.39-3.41.58-5.16.58-.43,0-1.06,1.6-.82,1.6,1.74,0,3.47-.19,5.16-.58.8-.18,1.59-.41,2.36-.68.64-.22,1.4-.42,1.94-.87.43-.35.79-.91.98-1.47.23-.68-.01-1.27-.44-1.83-1.17-1.57-2.5-3.01-3.74-4.51-5.1-6.14-10.2-12.27-15.3-18.41-2.53-3.05-5.07-6.09-7.6-9.14-.61-.74-1.23-1.48-1.85-2.22-.45-.54-.91-1.17-1.59-1.3-1.11-.2-1.9,1.22-2.26,2.18-.52,1.37-.32,2.88.02,4.34.4,1.73,1.08,3.37,1.9,4.93,1.76,3.37,4.16,6.3,6.45,9.24,5.54,7.11,11.08,14.22,16.63,21.33.32-.52.64-1.05.96-1.57-2.88-.78-5.63-2.11-8.15-3.95-.3-.22-1.23,1.38-.96,1.57h0Z"/><path d="m594.76,459.55c5.62,2.95,12.15,2.76,17.28-.47.17-.11,1.12-1.33.8-1.54-8.89-5.75-17.7-11.83-26.07-18.56-4.01-3.22-7.72-6.77-10.88-11.04-1.61-2.17-3.12-4.42-4.73-6.58-1.4-1.88-2.97-4.13-5.13-4.87-1.98-.68-3.6.95-4.04,3-.56,2.59,1.32,4.6,2.99,6.17.23.22,1.26-1.29.96-1.57-1.44-1.35-3.26-3.11-3-5.39.07-.54.35-.67.83-.76.43-.09.88-.01,1.3.13.93.32,1.8.98,2.53,1.71,1.68,1.65,3.06,3.77,4.45,5.71,1.39,1.96,2.76,3.94,4.25,5.81,3.02,3.8,6.6,6.96,10.29,9.88,3.78,2.98,7.65,5.83,11.55,8.61,4.53,3.23,9.11,6.34,13.75,9.34.27-.51.53-1.03.8-1.54-5.03,3.16-11.46,3.3-16.95.41-.37-.19-1.18,1.46-.95,1.58h0Z"/><path d="m611.08,456.93c2.61,1.8,5.65,2.67,8.6,2.4,1.29-.12,2.67-.35,3.59-1.4.73-.85,1.42-2.22.44-3.29-.56-.61-1.34-1.03-1.99-1.48-.81-.57-1.63-1.13-2.45-1.7-1.48-1.02-2.96-2.03-4.44-3.05-3.04-2.08-6.09-4.15-9.12-6.25-6.06-4.19-12.06-8.5-17.83-13.19-2.87-2.34-5.69-4.77-8.42-7.31-2.62-2.44-5.17-4.96-7.9-7.24-1.52-1.28-3.1-2.49-4.75-3.55-1.31-.84-3.19-2.2-4.66-1.41-1.13.61-1.95,2.25-1.79,3.69.21,1.84,1.74,2.96,3.05,3.86.32.22,1.23-1.39.96-1.57-1.13-.78-2.49-1.69-2.89-3.21-.08-.29-.12-.58-.11-.86,0-.07.1-.5-.05-.29.08-.11.39-.18.51-.21.73-.17,1.54.15,2.22.5,2.67,1.35,5.16,3.4,7.49,5.42,2.38,2.07,4.65,4.29,6.97,6.44,2.42,2.25,4.9,4.41,7.43,6.49,10.22,8.42,21.16,15.57,31.93,22.99,1.49,1.03,3.03,2,4.47,3.11.29.23.63.51.78.89-.03-.07.12.43.09.42.3-.31.32-.35.06-.12-.05.03-.11.07-.16.1-.63.38-1.41.48-2.12.57-3.05.4-6.22-.45-8.93-2.32-.33-.22-1.24,1.38-.97,1.57h0Z"/><path d="m625.79,457.5c3.28,1.67,6.76,2.72,10.28,3.1,1.75.19,3.58.27,5.31.03,1.09-.14,2.44-1.22,2.36-2.62-.04-.77-.76-1.4-1.25-1.89-.65-.67-1.37-1.26-2.11-1.79-1.51-1.08-3.13-1.93-4.75-2.75-3.48-1.76-6.86-3.71-10.17-5.91-7.11-4.74-14-9.96-20.95-14.98-7.22-5.21-14.43-10.42-21.65-15.63-4.03-2.91-8.06-5.82-12.08-8.73-3.03-2.19-6.59-5.33-10.3-4.5-.4.09-1,1.05-.93,1.51.28,1.91,1.14,3.63,2.46,4.94.21.22,1.26-1.27.96-1.57-1.29-1.28-2.11-2.95-2.39-4.81-.31.5-.62,1.01-.93,1.51,3.2-.72,6.24,1.65,8.9,3.57,3.36,2.43,6.71,4.85,10.07,7.27,6.84,4.94,13.68,9.88,20.51,14.81,6.72,4.85,13.42,9.74,20.17,14.56,3.16,2.26,6.35,4.46,9.66,6.43,3.09,1.84,6.38,3.21,9.42,5.14.77.49,1.51,1.02,2.22,1.63.65.56,1.47,1.23,1.91,2.01.06.12.11.25.16.37.45-.41.5-.51.14-.3-.18.03-.35.1-.52.12-.46.07-.94.08-1.41.1-.91.04-1.82.03-2.74-.02-3.9-.23-7.77-1.33-11.39-3.17-.38-.19-1.17,1.47-.96,1.58h0Z"/><path d="m644.27,456.61c5.54,3.63,12.23,4.52,18.05,2.41.29-.1,1.17-1.19.89-1.58-2.53-3.57-6.02-5.94-9.63-7.82-3.92-2.04-7.98-3.7-11.97-5.59-8.5-4.04-16.9-8.43-25.15-13.15-8.21-4.7-16.29-9.74-24.2-15.1-7.96-5.38-15.74-11.09-23.35-17.11-1.77-1.4-3.52-2.83-5.37-4.07-1.79-1.2-3.8-2.39-5.83-2.85-.72-.16-1.42-.11-1.96.44-.52.52-1.09,1.48-.91,2.34.22.98,1.19,1.73,1.84,2.34.86.8,1.75,1.54,2.69,2.22.93.68,1.9,1.29,2.89,1.84.37.2,1.19-1.44.96-1.57-1.91-1.07-3.72-2.36-5.38-3.88-.4-.37-.79-.73-1.17-1.13-.17-.18-.34-.36-.48-.56-.08-.11-.33-.8-.36-.81-.14.15-.28.31-.43.46.12-.07.24-.12.38-.14.18-.04.37-.04.55-.03.55.03,1.1.25,1.63.45,3.99,1.49,7.42,4.52,10.86,7.22,7.29,5.73,14.74,11.18,22.35,16.33,15.21,10.31,31.01,19.43,47.25,27.27,4.38,2.11,8.85,4,13.21,6.16,3.95,1.96,7.84,4.42,10.6,8.31.3-.53.59-1.06.89-1.58-5.79,2.11-12.4,1.24-17.91-2.38-.32-.22-1.21,1.4-.96,1.57h0Z"/><path d="m662.51,456.51c12.9,6.6,26.79,10.34,40.63,10.97,3.91.18,7.82.1,11.69-.22.27-.02,1.19-1.39.89-1.58-5.78-3.88-12.27-5.91-18.54-8.29-6.32-2.39-12.6-4.92-18.84-7.57-12.45-5.28-24.76-11.09-36.88-17.38-12.13-6.29-24.07-13.07-35.8-20.32-11.77-7.28-23.33-15.03-34.64-23.25-2.81-2.04-5.6-4.11-8.37-6.2-1.53-1.15-3.05-2.32-4.55-3.52-.75-.6-1.5-1.2-2.24-1.82-.68-.57-1.35-1.23-2.07-1.71-1.2-.8-2.23-.72-2.96.55-.8,1.38-.29,3.24-.02,4.81.64,3.76,1.77,7.45,3.33,10.91.76,1.69,1.63,3.32,2.59,4.88.09.14,1.24-1.12.96-1.57-1.98-3.25-3.55-6.77-4.64-10.46-.54-1.8-.96-3.65-1.26-5.51-.07-.45-.14-.9-.2-1.35-.04-.34,0-1.06-.15-1.34,0-.04,0-.09,0-.13-.5.29-.56.37-.19.23.12.02.24-.01.36,0,.39.05.79.26,1.14.47.69.43,1.3,1.06,1.94,1.58.74.62,1.48,1.23,2.24,1.83,1.46,1.17,2.94,2.3,4.43,3.43,2.75,2.08,5.51,4.13,8.29,6.15,11.01,8.01,22.24,15.58,33.69,22.71,11.37,7.08,22.94,13.71,34.68,19.88,11.82,6.21,23.82,11.95,35.95,17.21,6.07,2.63,12.17,5.13,18.31,7.52,6.11,2.37,12.42,4.3,18.33,7.35,1.43.74,2.84,1.56,4.2,2.48.3-.53.59-1.06.89-1.58-13.68,1.13-27.7-.85-41.04-5.81-3.78-1.41-7.5-3.05-11.15-4.91-.4-.21-1.2,1.44-.98,1.56h0Z"/><path d="m549.21,342.78c5.77-2.87,11.14-6.52,16.4-10.34,5.1-3.71,10.35-7.31,14.69-12.09,2.29-2.52,4.32-5.33,6.1-8.33.07-.13.49-.78.29-.94-.19-.15-.62.54-.67.63-3.17,5.36-7.25,9.76-11.95,13.41-4.93,3.83-9.99,7.54-15.19,10.92-2.93,1.91-5.92,3.68-9.04,5.22-.33.16-.58.67-.73,1.02-.06.17-.23.65.09.49h0Z"/><path d="m571.93,327.66c2.4-1.74,4.81-3.48,7.21-5.23.17-.48.35-.95.52-1.42-2.59,2.46-5.31,4.75-8.14,6.86-.29.22-.52.57-.68.92-.03.08-.29.68-.05.64,1.33-.26,2.39-1.55,3.38-2.47,1.13-1.04,2.24-2.11,3.32-3.2,2.15-2.17,4.22-4.44,6.2-6.8.21-.25.49-.62.55-.98.03-.14.08-.47-.15-.31-1.68,1.14-3.2,2.52-4.56,4.1-.21.25-.49.63-.55.98-.03.13-.08.5.15.31,1.74-1.4,2.94-3.43,4.32-5.24,1.55-2.04,3.21-3.98,4.95-5.81.05-.34.1-.68.15-1.02-1.45,2.04-2.97,4.03-4.54,5.95.04.23.08.46.11.68.6-1.05,1.29-2.01,2.08-2.88.2-.22.64-.78.59-1.13-.05-.36-.27-.11-.44.07-.99,1.1-1.87,2.32-2.62,3.63-.06.12-.44.68-.32.87.12.2.35-.07.43-.19,1.67-2.04,3.27-4.13,4.81-6.29.13-.18.49-.67.45-.96-.03-.24-.14-.24-.3-.06-1.63,1.71-3.19,3.49-4.66,5.37-.72.93-1.43,1.87-2.12,2.84-.69.96-1.36,1.94-2.26,2.65-.13.43-.27.86-.4,1.29,1.21-1.41,2.58-2.63,4.07-3.65.13-.43.27-.86.4-1.29-1.84,2.19-3.75,4.31-5.75,6.32-.99,1-1.99,1.97-3.01,2.93-.47.45-.96.89-1.44,1.32-.62.56-1.21,1.19-2.04,1.36-.25.52-.49,1.04-.73,1.55,2.91-2.17,5.7-4.52,8.36-7.05.27-.26.52-.64.65-1.02.04-.13.16-.61-.12-.4-2.4,1.74-4.81,3.48-7.21,5.23-.32.23-.57.63-.73,1.02-.04.13-.21.73.1.51h0Z"/><path d="m588.15,310.4c3.11-3.8,6.14-7.68,9.09-11.63.12-.16.78-1.54.15-1.02-4.6,3.8-7.26,9.77-11.73,13.72-.09.4-.19.79-.28,1.19,3.39-3.73,6.77-7.46,10.16-11.19.21-.23.56-.7.57-1.05,0-.29-.04-.34-.29-.14-2.06,1.74-3.91,3.71-5.6,5.89.04.24.08.48.11.71,3.14-4.36,6.28-8.72,9.42-13.08.1-.14.61-.87.46-1.08-.17-.23-.47.22-.57.36-1.84,2.53-3.69,5.05-5.53,7.58-.09.13-.68,1.41-.26,1.11,4.41-3.18,6.94-8.42,10.46-12.61.2-.25.56-.69.57-1.05.01-.28-.05-.36-.29-.14-3.23,3.04-5.96,6.64-8.18,10.67-.23.42-.26,1.07.23.47,2.42-2.97,4.84-5.95,7.26-8.92.2-.25.56-.69.57-1.05,0-.27-.05-.37-.29-.14-2.27,2.18-4.34,4.6-6.21,7.22-.13.18-.49.67-.45.96.03.24.14.24.3.06,2.89-3.03,5.62-6.24,8.21-9.61.24-.32.76-1.68.02-.89-1.79,1.92-3.57,3.83-5.36,5.75,0,.3-.01.59-.02.89,1.8-2.63,3.86-4.98,6.17-7.05.13-.44.28-.89.41-1.33-2.82,2.72-5.6,5.48-7.79,8.87-.23.36-.51,1.41.11.68,1.3-1.52,2.6-3.03,3.89-4.54.63-.74,1.27-1.47,1.9-2.21.62-.72,1.25-1.69,2.15-2,1.49-.51,3.02.77,4.19,1.76,1.17.98,2.46,1.98,3.93,1.79.31-.04.59-.59.72-.86.04-.08.36-.77.1-.74-3.15.4-5.47-5.13-8.64-3.32-.72.41-1.28,1.11-1.83,1.75-.7.81-1.4,1.62-2.09,2.44-1.4,1.62-2.79,3.25-4.18,4.87.04.23.08.46.11.68,1.95-3.01,4.5-5.44,7-7.85.28-.26.6-.69.68-1.11.06-.31,0-.46-.27-.21-2.5,2.24-4.74,4.82-6.69,7.66-.22.32-.77,1.69-.02.89,1.79-1.92,3.57-3.83,5.36-5.75,0-.3.01-.59.02-.89-2.42,3.15-4.99,6.15-7.68,8.99-.05.34-.1.68-.15,1.02,1.71-2.4,3.6-4.6,5.68-6.6.09-.4.19-.79.28-1.19-2.42,2.97-4.84,5.95-7.26,8.92.08.16.15.31.23.47,1.92-3.5,4.34-6.59,7.14-9.22.09-.4.19-.79.28-1.19-3.35,3.99-5.78,9.13-9.98,12.16-.09.37-.18.74-.26,1.11,1.84-2.53,3.69-5.05,5.53-7.58-.04-.24-.08-.48-.11-.71-3.14,4.36-6.28,8.72-9.42,13.08-.1.14-.61.87-.46,1.08.17.23.46-.22.57-.36,1.52-1.96,3.23-3.71,5.07-5.28.09-.4.19-.79.28-1.19-3.39,3.73-6.77,7.46-10.16,11.19-.21.23-.56.7-.57,1.05,0,.28.05.36.29.14,4.47-3.96,7.13-9.92,11.73-13.72.05-.34.1-.68.15-1.02-2.86,3.84-5.8,7.61-8.82,11.29-.2.24-.64.76-.59,1.13.08.36.31.13.46-.06h0Z"/><path d="m611.57,286.85c6.06,1.88,12.23,3.15,18.42,3.79.41.04,1.1-1.57.82-1.6-6.15-.63-12.27-1.89-18.29-3.77-.45-.15-1.11,1.52-.96,1.57h0Z"/><path d="m609.53,285.99c8.91,3.74,18.3,6.61,27.62,5.56,2.83-.32,5.6-.98,8.27-1.94.33-.12.56-.54.72-.86.03-.06.33-.82.1-.74-4.6,1.65-9.48,2.38-14.4,2.11-4.66-.25-9.29-1.34-13.82-2.84-2.54-.85-5.05-1.82-7.54-2.87-.42-.18-1.15,1.49-.96,1.57h0Z"/><path d="m626.9,290.2c7.63.1,15.54.11,22.37-3.59.33-.17.58-.66.73-1.02.06-.15.24-.67-.09-.5-6.76,3.67-14.64,3.61-22.19,3.51-.43,0-1.06,1.6-.82,1.6h0Z"/><path d="m635.09,290.93c8.65-1.76,17.77-3.99,23.01-12.36.08-.12.49-.78.29-.94-.19-.15-.62.54-.67.63-4.79,7.64-13.98,9.48-21.81,11.07-.32.06-.58.58-.72.86-.04.07-.36.78-.1.74h0Z"/><path d="m421.56,314.11c1.31-.42,2.52-1.1,3.7-1.84,1.21-.76,2.4-1.54,3.6-2.31.33-.21.57-.64.73-1.02.06-.13.23-.7-.09-.5-1.16.74-2.31,1.49-3.47,2.23-1.16.74-2.34,1.43-3.64,1.83-.33.1-.57.55-.72.86-.03.06-.34.81-.1.74h0Z"/><path d="m387.72,336.29c3.7-2.94,7.47-5.77,11.32-8.49.32-.23.57-.63.73-1.02.05-.12.22-.71-.09-.5-3.84,2.71-7.62,5.55-11.32,8.49-.32.25-.57.62-.73,1.02-.05.11-.22.74.09.5h0Z"/></svg>