<?xml version="1.0" encoding="UTF-8"?>
<svg id="Lag_1" data-name="Lag 1" xmlns="http://www.w3.org/2000/svg" viewBox="0 0 125.66 114.42">
  <defs>
    <style>
      .cls-1 {
        font-size: 28px;
      }

      .cls-1, .cls-2 {
        fill: #1d1d1b;
        font-family: Poppins-ExtraLight, Poppins;
        font-weight: 200;
      }

      .cls-3 {
        fill: #d99ab6;
      }

      .cls-2 {
        font-size: 12px;
      }

      .cls-4 {
        opacity: .54;
      }
    </style>
  </defs>
  <g class="cls-4">
    <path class="cls-3" d="M24.7,88.63l-14.2-12.26c-2.63-2.27-5.3-4.58-7.2-7.49-5.86-8.95-3.05-21,1.72-30.57,5.51-11.08,13.49-21.05,23.68-28.07S51.34-.73,63.69,.11c7.99,.55,15.73,3.04,23.08,6.23,7.16,3.1,14.12,6.95,19.71,12.39,4.76,4.64,8.4,10.31,11.35,16.27,4.84,9.77,7.92,20.54,7.83,31.44s-3.53,21.92-10.52,30.28c-6.38,7.63-15.45,12.74-25.05,15.34s-19.72,2.82-29.61,1.77c-6.35-.67-12.73-1.89-18.52-4.59s-10.99-7.01-13.86-12.72c-1.45-2.88-2.39-6.22-4.91-8.23"/>
  </g>
  <text class="cls-1" transform="translate(43.14 41.36) rotate(-.96)"><tspan x="0" y="0">IDA </tspan><tspan x="-12.54" y="33.6">SVALE</tspan></text>
  <text class="cls-2" transform="translate(40.5 90.5)"><tspan x="0" y="0">portofolio</tspan></text>
</svg>